<?xml version="1.0" standalone="no"?>
<svg viewBox="0 0 200 200" xmlns="http://www.w3.org/2000/svg">
  <path fill="#FEEAFA" d="M47.3,-82.3C61.5,-73.8,73.3,-61.4,80.5,-47.1C87.6,-32.7,90.2,-16.4,88.8,-0.8C87.4,14.8,82.1,29.5,74.3,42.9C66.6,56.3,56.5,68.3,43.7,77C30.9,85.7,15.5,91,0.4,90.4C-14.7,89.8,-29.5,83.2,-42.5,74.6C-55.5,66,-66.8,55.6,-75.6,42.8C-84.4,30,-90.7,15,-91.1,-0.2C-91.4,-15.5,-85.9,-30.9,-77.4,-44.2C-68.9,-57.5,-57.5,-68.7,-44.1,-77.6C-30.7,-86.5,-15.4,-93.2,0.6,-94.3C16.6,-95.3,33.1,-90.7,47.3,-82.3Z" transform="translate(100 100)" />
</svg>
