<svg id="Layer_1" data-name="Layer 1" xmlns="http://www.w3.org/2000/svg" viewBox="0 0 503.9 522.76"><defs><style>.cls-1{fill:#e7e3f1;}.cls-2{fill:#f1eff7;}</style></defs><path class="cls-1" d="M99,360.17C93.81,346.12,88.17,317,128.3,242.07c27.67-51.65,41.5-77.47,60.35-87.93C241,125.07,316.92,155.32,360.2,186c65.29,46.35,67.33,101.66,127.58,116.38,37.2,9.09,50-8.68,71.56,3.45,50.73,28.51,58.31,170.52-7.76,259.48C468.65,677,280.31,690.82,224.85,627.41c-40.92-46.78-13.92-140.67-62.07-184.48a272.45,272.45,0,0,1-50.86-59.48C104.94,372.37,101.45,366.84,99,360.17Z" transform="translate(-95.36 -142.38)"/><path class="cls-2" d="M229.8,493.69c-14,21.05-5.84,48.14-3.45,56,2.21,7.31,9.68,28.58,30.17,44.83A110,110,0,0,0,301.26,616c17.5,3.78,30.82,5.79,46.64,4.63a279.51,279.51,0,0,0,65.16-13.06c33.87-11,43.53-25.79,47.6-29.88,2-2,14.77-17.61,11.69-26.27-1.83-5.15-9.82-6.81-19.28-4.31-12,3.17-17.41,11.63-21.41,16.24-7.21,8.31-18.32,11-29.55,15.28-15.4,5.93-29.12,10.64-55.93,9.82-23.5-.71-36.76-6.24-53.54-12.64-23.42-8.94-31-21.29-33-25.39-1.51-3.08-1.25-4.75-2.37-8.74-2.06-7.27-3.81-17.47-3.35-32.5.59-19.53,2-12-.73-21C251.56,482.66,236,484.33,229.8,493.69Z" transform="translate(-95.36 -142.38)"/><path class="cls-2" d="M165.62,240.06c-8.4-18.29,12.64-53.1,41.38-67.24,20.18-9.92,38.8-7,67.24-2.59,12.45,2,43.45,6.78,45.69,19.83.71,4.15-1.38,9.7-5.17,12.07-4.05,2.53-9.08.86-14.66-.86-9.39-2.9-19-4.94-28.45-7.76-12.22-3.66-25.6-7.67-40.51-4.31-4.67,1.05-18.45,4.15-26.73,15.52-4.67,6.42-3,9.22-10.34,26.72-7.56,18.13-11.14,19.51-12.93,19.83C175.54,252.27,168.49,246.3,165.62,240.06Z" transform="translate(-95.36 -142.38)"/><path class="cls-1" d="M302.4,229.89" transform="translate(-95.36 -142.38)"/></svg>