<svg id="Layer_1" data-name="Layer 1" xmlns="http://www.w3.org/2000/svg" viewBox="0 0 415.18 498.96"><defs><style>.cls-1{fill:#d3d9ee;}.cls-2{fill:#dde4f3;}</style></defs><path class="cls-1" d="M134.72,492.79c-61.53-72.63-79.42-186.33-31-277.58C158.09,112.63,286.63,56.58,343.34,87.62c17.45,9.55,23.21,24.66,65.52,51.72,36.91,23.61,47.41,21.64,61.21,38.8,19.63,24.4,27.84,65,14.65,97.41-16.92,41.55-55.58,36.34-74.13,79.31-12.68,29.35-7.2,41.94-2.59,83.62s-6,108.62-69.83,132.76C272.75,596,182.58,549.27,134.72,492.79Z" transform="translate(-75.97 -79.08)"/><path class="cls-2" d="M135.59,348.83C112.75,334,125,261.3,152,216.93a526.2,526.2,0,0,1,30.17-44.83c13.28-17,22.41-28.74,37.93-40.51,11.92-9,31.57-23.58,58.62-25,3.69-.2,36-1.6,41.38,12.93,2.19,5.93-1.36,11.9-6.17,16.1-5.83,5.08-11.44,4.42-24.87,5.45a110.68,110.68,0,0,0-30.89,9.62c-9.71,4.87-19.09,11.22-31.45,25.72-9.42,11.05-17.8,20.88-26.72,36.21-10.09,17.32-18,31-19.83,50-1.3,13.71-2.83,13.51-3.28,33.62-.46,20.81.75,25.86-5.34,44.83C167.58,353.34,146.18,355.73,135.59,348.83Z" transform="translate(-75.97 -79.08)"/><path class="cls-2" d="M237.55,538.48c13.28,17.36,46.46,23,74.13,14.66,15.25-4.58,28.86-9.2,38.49-16.83,10-7.91,33.25-32.52,29.62-53.86-.37-2.15-2.47-12.64-9.48-14.66-3.61-1-7.71.4-10.35,2.59-3.79,3.15-4.44,7.79-5.17,11.21,0,0-5.1,8.79-14.21,23.13-8.53,13.44-19.06,16-21.14,16.83a56.84,56.84,0,0,1-32.76,2.73c-1.76-.44-7.78.12-19.82-4.76-13.71-5.56-18.27-7.71-24.14-6-.77.22-8.25,2.46-10.35,8.62C230.11,528.76,235.53,535.85,237.55,538.48Z" transform="translate(-75.97 -79.08)"/></svg>