<?xml version="1.0" standalone="no"?>
<svg viewBox="0 0 200 200" xmlns="http://www.w3.org/2000/svg">
  <path fill="#EFD3D7" d="M45.1,-78.5C59.3,-70,72.2,-59.6,78.8,-46.2C85.5,-32.7,85.9,-16.4,85,-0.5C84.1,15.3,81.7,30.6,73.8,41.7C65.8,52.8,52.2,59.8,38.9,67.4C25.7,75.1,12.8,83.4,-1,85.1C-14.8,86.7,-29.5,81.7,-40.8,72.9C-52.1,64.1,-59.9,51.6,-69,38.8C-78.1,26,-88.5,13,-88.5,0C-88.5,-13,-78.1,-26,-69.8,-40.2C-61.5,-54.4,-55.3,-69.8,-44.1,-79.9C-32.8,-90.1,-16.4,-95,-0.5,-94.2C15.5,-93.4,31,-86.9,45.1,-78.5Z" transform="translate(100 100)" />
</svg>
