<svg id="Layer_1" data-name="Layer 1" xmlns="http://www.w3.org/2000/svg" viewBox="0 0 449.13 619.74"><defs><style>.cls-1{fill:#e7e3f1;}.cls-2{fill:#f2f2f9;}</style></defs><path class="cls-1" d="M189,204.86C213.52,140.52,306,83.54,381.28,96.24c109,18.41,173.78,206.36,131.89,281-32.83,58.53-120.68,56-126.72,111.2-3,27.09,1.87,30.15,5.23,62.93C398.06,613.48,334,705,265.76,713.48c-106.09,13.17-212-159.61-184.42-245.69,17-52.89,57.71-50.27,84.42-125.86C184.12,290,171.76,250.25,189,204.86Z" transform="translate(-76.9 -94.45)"/><path class="cls-2" d="M342,122.42c12-12.93,47.34-1.91,68.61,10.18,27,15.35,43.5,37.08,46.25,42.09,6,10.93,15.65,16.94,14.45,55.38-.44,14.34-3.29,36.59-19.92,36.57-8.29,0-19.9-13.73-19.6-21.72.28-7.16,3.89-7.31,3.55-17.36-.7-20.56-6.47-28.85-8.31-32.3-5-9.36-11.51-15.52-26.52-25.85-14.73-10.12-21.09-12.18-30.75-13-10.48-.86-16.72,0-23.72-4.37a20,20,0,0,1-9.12-15.82A20.23,20.23,0,0,1,342,122.42Z" transform="translate(-76.9 -94.45)"/><path class="cls-2" d="M176.69,608.62c15.85,23.33,14.72,22,21.55,28.62,13.77,13.26,33.82,18.07,49.14,17.93s41.7-.37,56.17-17.24c10.32-12,8.26-19.45,22.55-30.48,1.32-1,12.79-10.22,19.56-5.9,7.25,4.64,3.48,18.85-.87,30.35-11.52,30.47-41.32,44.39-48.27,47.41-28.44,12.36-54.28,7.33-69.83,4.31-14.33-2.79-36-7-54.31-25-4.89-4.8-17.87-17.93-20.69-37.93-1.91-13.57.81-23.62,6.9-24.9C160.46,595.4,163.57,589.31,176.69,608.62Z" transform="translate(-76.9 -94.45)"/></svg>