<svg xmlns="http://www.w3.org/2000/svg" viewBox="0 0 150 147"><defs><style>.cls-1{fill:none;stroke:#fff;stroke-miterlimit:10;stroke-width:4px;}.cls-2{fill:#fff;}</style></defs><g id="Layer_1" data-name="Layer 1"><ellipse class="cls-1" cx="75" cy="73.5" rx="73" ry="71.5"/><path class="cls-2" d="M146.48,353.86c-7.3,2.57-8.52,22-4.78,35.17a59.81,59.81,0,0,0,8.7,17.41,139.76,139.76,0,0,0,15.23,17.75h0s15-5.53,19.15-11.72C194.92,397.32,159.5,349.29,146.48,353.86Z" transform="translate(-111 -298)"/><path class="cls-2" d="M145.32,354.16c-7.3,2.56-8.53,22-4.79,35.16a60,60,0,0,0,8.7,17.42c6.1,8.88,15.24,17.74,15.23,17.75h0s15-5.53,19.15-11.73C193.75,397.62,158.33,349.58,145.32,354.16Z" transform="translate(-111 -298)"/><ellipse class="cls-1" cx="75" cy="73.5" rx="73" ry="71.5"/></g></svg>