<svg id="Layer_2" data-name="Layer 2" xmlns="http://www.w3.org/2000/svg" xmlns:xlink="http://www.w3.org/1999/xlink" viewBox="0 0 1526 465"><defs><style>.cls-1{fill:#dbccff;}.cls-2{fill:none;}.cls-2,.cls-3{stroke:#fff;stroke-miterlimit:10;stroke-width:4px;}.cls-3,.cls-8{fill:#fff;}.cls-4{fill:#f6e3ff;}.cls-5{fill:#ffed85;}.cls-6{fill:#ffdc31;}.cls-7{fill:#c7fcff;}.cls-9{fill:#64bdff;}.cls-10{fill:#dee2ff;}.cls-11{fill:#edf0fc;}.cls-12{fill:#8e9ab0;}</style></defs><path class="cls-1" d="M907.52,555.88c-3.13-12.13,8-29.13,20.52-34.83,20.88-9.52,49.67,10.63,50.24,30.36.28,9.79-6.38,19.79-13.86,24.12-7.25,4.2-13.95,2.29-26.25-1.44C920.76,568.81,910,565.55,907.52,555.88Z" transform="translate(299 -232)"/><ellipse class="cls-2" cx="1255.43" cy="304.07" rx="5.2" ry="6.23"/><ellipse class="cls-2" cx="1223.85" cy="303.11" rx="5.33" ry="6.07"/><path class="cls-3" d="M921.81,534.83c-.51-.69,1-4.12,2.63-3.92a1.74,1.74,0,0,1,1.47,1.49C925.92,534,922.37,535.58,921.81,534.83Z" transform="translate(299 -232)"/><path class="cls-3" d="M952.9,536.23c-.56-.81,1-4.85,2.85-4.63a2,2,0,0,1,1.61,1.77C957.37,535.19,953.51,537.11,952.9,536.23Z" transform="translate(299 -232)"/><path class="cls-4" d="M934.83,544.84l7.51-1.34c.56,4.45-.68,8.37-2.75,8.74S935.38,549.3,934.83,544.84Z" transform="translate(299 -232)"/><path class="cls-5" d="M917.65,535.19v0l0,.09c-.07,11.07-4.31,20-9.56,20.24v0c3.55.11,6.65,4.56,8.32,11.13a45.3,45.3,0,0,1,1.29,9.42v.1l0,0V535.15Z" transform="translate(299 -232)"/><path class="cls-5" d="M926.9,555.53c-5.08-.63-9.11-9.41-9.19-20.21l0-.1,0,0v41l0,0v-.11A44.21,44.21,0,0,1,919.14,566c1.64-6,4.49-10,7.76-10.42Z" transform="translate(299 -232)"/><path class="cls-5" d="M917.64,576.22l0,0v-.11A44.21,44.21,0,0,1,919.14,566c-.17-3.38-.72-5.86-1.38-5.86a.15.15,0,0,0-.09,0h0c-.65.3-1.17,3-1.29,6.51a45.3,45.3,0,0,1,1.29,9.42Z" transform="translate(299 -232)"/><path class="cls-6" d="M930.35,509v0l0,0c0,5.87-2.18,10.63-4.84,10.75h0c1.8.06,3.37,2.42,4.21,5.92a25,25,0,0,1,.65,5v0h0V509Z" transform="translate(299 -232)"/><path class="cls-6" d="M935,519.82c-2.57-.33-4.61-5-4.65-10.73l0,0v21.77h0v-.06a25.22,25.22,0,0,1,.74-5.37c.84-3.17,2.28-5.32,3.93-5.53Z" transform="translate(299 -232)"/><path class="cls-6" d="M930.34,530.81h0v-.06a25.22,25.22,0,0,1,.74-5.37c-.08-1.79-.36-3.11-.69-3.11h-.07c-.32.16-.59,1.59-.65,3.46a25,25,0,0,1,.65,5Z" transform="translate(299 -232)"/><path class="cls-5" d="M969.75,519.21v0l0,.1c-.07,11.06-4.31,20-9.56,20.24h0c3.55.12,6.65,4.56,8.32,11.14a45.21,45.21,0,0,1,1.29,9.42v.1l0,0V519.18Z" transform="translate(299 -232)"/><path class="cls-5" d="M979,539.55c-5.08-.63-9.11-9.41-9.18-20.21l-.05-.09,0,0v41h0v-.11A44.3,44.3,0,0,1,971.24,550c1.65-6,4.49-10,7.76-10.42Z" transform="translate(299 -232)"/><path class="cls-5" d="M969.74,560.25l0,0v-.12A44.3,44.3,0,0,1,971.24,550c-.17-3.38-.72-5.86-1.38-5.86l-.09,0h0c-.65.31-1.17,3-1.29,6.52a45.21,45.21,0,0,1,1.29,9.42Z" transform="translate(299 -232)"/><path class="cls-6" d="M967.26,534.1v0l0,0c0,5.88-2.18,10.63-4.84,10.75h0c1.8.07,3.37,2.43,4.21,5.92a25,25,0,0,1,.65,5v.06h0V534.1Z" transform="translate(299 -232)"/><path class="cls-6" d="M971.94,544.9c-2.57-.33-4.61-5-4.65-10.73l0,0v21.77h0v-.06a24.39,24.39,0,0,1,.75-5.36c.83-3.17,2.27-5.33,3.92-5.54Z" transform="translate(299 -232)"/><path class="cls-6" d="M967.25,555.89l0,0v-.07a24.39,24.39,0,0,1,.75-5.36c-.09-1.8-.37-3.12-.7-3.12h-.07c-.32.16-.59,1.59-.65,3.46a25,25,0,0,1,.65,5Z" transform="translate(299 -232)"/><ellipse class="cls-4" cx="1225.11" cy="303.19" rx="1.8" ry="2.16"/><ellipse class="cls-4" cx="1257.29" cy="304.23" rx="1.87" ry="2.24"/><ellipse class="cls-7" cx="1223.51" cy="305.11" rx="1.53" ry="1.84"/><ellipse class="cls-7" cx="1256.03" cy="306.07" rx="1.4" ry="1.68"/><ellipse class="cls-8" cx="1236.37" cy="316.69" rx="0.67" ry="0.8"/><ellipse class="cls-8" cx="1240.17" cy="314.21" rx="1" ry="1.2"/><ellipse class="cls-8" cx="1251.23" cy="337.86" rx="1" ry="1.2"/><ellipse class="cls-8" cx="1228.78" cy="328.83" rx="1.33" ry="1.6"/><ellipse class="cls-8" cx="1247.1" cy="291.69" rx="1.13" ry="1.36"/><ellipse class="cls-8" cx="1248.43" cy="334.5" rx="0.47" ry="0.56"/><ellipse class="cls-8" cx="1243.03" cy="290.65" rx="0.27" ry="0.32"/><ellipse class="cls-8" cx="1263.49" cy="329.23" rx="0.33" ry="0.4"/><ellipse class="cls-8" cx="1267.49" cy="334.02" rx="1.13" ry="1.36"/><ellipse class="cls-9" cx="1257.22" cy="305.91" rx="1.4" ry="1.68"/><ellipse class="cls-9" cx="1225.11" cy="305.43" rx="1.4" ry="1.68"/><path class="cls-10" d="M468,508.9C470.5,614.42,738.73,711,967.89,695.31c132.3-9.07,176.38-50.42,187.06-61.06,79.66-79.4,103.52-247,18.71-325.69-76.89-71.31-207.15-36.18-276.44,10.71-59.37,40.18-43.55,68.38-95.61,96.42-108.92,58.67-219.82-42.36-296.18,22.5C498.38,444.18,467.16,472.36,468,508.9Z" transform="translate(299 -232)"/><ellipse class="cls-2" cx="996.17" cy="335.29" rx="33.78" ry="34.82"/><path class="cls-3" d="M677.94,565.68c-3.25-3.94,6-23.6,16.63-22.5,4.36.46,9.31,4.43,9.35,8.57C704,560.65,681.48,570,677.94,565.68Z" transform="translate(299 -232)"/><ellipse class="cls-2" cx="1384.84" cy="184.23" rx="33.78" ry="34.82"/><path class="cls-3" d="M1066.61,414.62c-3.24-3.94,6-23.6,16.63-22.5,4.36.46,9.32,4.43,9.36,8.58C1092.68,409.59,1070.15,418.91,1066.61,414.62Z" transform="translate(299 -232)"/><path class="cls-11" d="M808.21,485.22l-11.63-30.05q4.65-1.59,9.31-3.41l11.6,30Q812.86,483.58,808.21,485.22Z" transform="translate(299 -232)"/><path class="cls-11" d="M635.13,454l1.18-.33a49.77,49.77,0,0,1,34.22,3.36c16.41,7.87,37,11.67,60,11,20.67-.56,43.41-4.7,66.17-12.62,3.09-1.07,6.2-2.22,9.3-3.44l11.49,29.7q2.28-.88,4.56-1.83c1.5-.61,3-1.23,4.45-1.88a11.36,11.36,0,0,1-2.36,1.34c-.89.38-1.78.74-2.68,1.11-1.28.53-2.57,1.05-3.85,1.55-29.4,11.63-58.64,17.9-85.34,19.17-44.87,2.17-82.55-9.78-101.63-34.17l-.07-.08C627,462.43,629.44,455.66,635.13,454Z" transform="translate(299 -232)"/><path class="cls-11" d="M817.61,482l-.12-.29q2.28-.88,4.56-1.83c1.5-.61,3-1.23,4.45-1.88a11.36,11.36,0,0,1-2.36,1.34c-.89.38-1.78.74-2.68,1.11C820.18,481,818.89,481.54,817.61,482Z" transform="translate(299 -232)"/><path class="cls-11" d="M826.2,478l-11.63-30q-4.44,2.14-9,4.13l11.6,30Q821.73,480.07,826.2,478Z" transform="translate(299 -232)"/><path class="cls-11" d="M930.94,332.54l-1.07.59a52.29,52.29,0,0,0-22.59,26.72c-6.65,17.36-19,34.69-36.15,50.58a228,228,0,0,1-56.44,37.8q-4.44,2.13-9,4.1L817.14,482c-1.49.65-3,1.29-4.52,1.91s-3,1.22-4.49,1.79a11.36,11.36,0,0,0,2.61-.7l2.68-1.1c1.29-.52,2.57-1.06,3.83-1.61,29.09-12.42,54.49-28.61,74.71-46.64,34-30.26,53.36-65.67,50.92-96.9v-.1A7.93,7.93,0,0,0,930.94,332.54Z" transform="translate(299 -232)"/><path class="cls-11" d="M817.25,482.32l-.11-.29c-1.49.65-3,1.29-4.52,1.91s-3,1.22-4.49,1.79a11.36,11.36,0,0,0,2.61-.7l2.68-1.1C814.71,483.41,816,482.87,817.25,482.32Z" transform="translate(299 -232)"/><path class="cls-12" d="M960,65Z" transform="translate(299 -232)"/><image width="2048" height="1536" transform="translate(0 0) scale(0.14 0.15)" xlink:href="../Downloads/community.jpg"/></svg>