<svg id="Layer_9" data-name="Layer 9" xmlns="http://www.w3.org/2000/svg" viewBox="0 0 725.16 816.26"><defs><style>.cls-1{fill:#8e9ab0;}.cls-2{fill:#b4c2da;}.cls-3{fill:none;stroke:#b4c2da;stroke-miterlimit:10;stroke-width:4px;}</style></defs><path class="cls-1" d="M1352,174c93.27-103.75,297.35-242.25,451-160,141,75.49,143.08,285.29,143,306-.83,211.09-171,338.53-205,364-14.24,10.67-271.22,198.42-428,85-125.82-91-96.61-310.55-64-415A489,489,0,0,1,1352,174Z" transform="translate(-1220.85 10.98)"/><path class="cls-2" d="M1609,50c-30,6-51,14-59,18-72.41,36.2-64.7,28.94-98,50-20.8,13.16-124,78.29-136,163-1.59,11.18-5.19,36.53,8,45,1.79,1.15,10.49,6.36,31-3,55.22-25.19,59.5-93.54,119-141,67.63-53.95,140-64,140-64,12.34-1.71,40.33-4.5,50-23,5.94-11.36,4.33-27.42-4-37C1648.42,44.68,1626.88,46.42,1609,50Z" transform="translate(-1220.85 10.98)"/><circle class="cls-3" cx="148.15" cy="525.98" r="52"/><circle class="cls-3" cx="598.15" cy="205.98" r="52"/><path class="cls-2" d="M1345,535c-5.89-.94-11.66-23.33-2-41,6.61-12.08,20.5-22.09,25-19C1376.55,480.87,1354.79,536.56,1345,535Z" transform="translate(-1220.85 10.98)"/><path class="cls-2" d="M1794.46,218.7c-5.89-.94-11.66-23.33-2-41,6.61-12.08,20.5-22.09,25-19C1826,164.57,1804.25,220.26,1794.46,218.7Z" transform="translate(-1220.85 10.98)"/></svg>