<svg id="Layer_1" data-name="Layer 1" xmlns="http://www.w3.org/2000/svg" viewBox="0 0 798.18 515.15"><defs><style>.cls-1{fill:#cbbfd3;}.cls-2{fill:#efd3d7;}.cls-3{fill:#fbecef;}.cls-4{fill:none;stroke:#fff;stroke-miterlimit:10;stroke-width:4px;}.cls-5{fill:#fff;}.cls-6{fill:#e6deed;}</style></defs><path class="cls-1" d="M823.5,202.5c-51.21-43.39-227,9.09-266,131-35.83,112.16,65.94,215,71,220,120.9,118.64,358,102.46,412,6,22.6-40.38,20-107.08-13-143C981.85,366.73,877.2,395.19,870,340c-3-23-.08-14.88-5.5-44.5C859,265.13,844.1,220,823.5,202.5Z" transform="translate(-257.06 -187.45)"/><path class="cls-1" d="M294,330" transform="translate(-257.06 -187.45)"/><path class="cls-2" d="M599,396c4-42.22-12.68-90.19-37-114-45.82-44.86-144.63-29.29-204,12-99.26,69-142.83,247.79-49,347,63,66.65,165.84,73.88,237,47,62.5-23.61,122.66-81.88,113-117-4.58-16.64-21.59-16.31-43-50-18.17-28.6-22.22-54.51-23-60C588.94,432.48,596.77,419.55,599,396Z" transform="translate(-257.06 -187.45)"/><path class="cls-3" d="M575,387c-.26-5.74-5.29-11.56-11-13-8-2-15.68,5-19,8-27.63,25.17-15.31,96.78-14,104,.9,5,10.8,56.83,39,77,4.23,3,12.56,9,20,6,5.6-2.24,9.39-9,9-15-.53-8.15-8.76-13.57-12-16-29.48-22.08-30-83.78-26-108,2.77-17,4.15-25.47,9-32C572.08,395.2,575.22,391.78,575,387Z" transform="translate(-257.06 -187.45)"/><circle class="cls-4" cx="243.44" cy="444.05" r="26.5"/><circle class="cls-4" cx="200.44" cy="173.05" r="30.5"/><path class="cls-5" d="M438,350c-3.05,1.09-3.56,9.39-2,15a25.56,25.56,0,0,0,3.64,7.43A58.36,58.36,0,0,0,446,380h0s6.27-2.36,8-5C458.24,368.54,443.44,348.05,438,350Z" transform="translate(-257.06 -187.45)"/><path class="cls-5" d="M481.65,621.79c-3,1.1-3.56,9.39-2,15a25.82,25.82,0,0,0,3.64,7.43,59.26,59.26,0,0,0,6.36,7.57s6.27-2.36,8-5C501.89,640.33,487.09,619.84,481.65,621.79Z" transform="translate(-257.06 -187.45)"/><path class="cls-6" d="M858.31,293.94c-1.24-5.51-4.9-13.9-10.86-14.85-6.4-1-12.35,7-14.48,9.9-14.25,19.28-16,69.33,13.27,100.28,31.41,33.23,85.3,30.43,94.12,18.57A17.43,17.43,0,0,0,944,396.69c-.7-6.87-6.85-10.89-7.24-11.14-7.38-4.65-15.42-.13-24.14,1.24-19.85,3.13-43.26-10.09-53.09-27.23-5.92-10.33-8.66-25.13-6-38.38C855.64,310.3,860.65,304.39,858.31,293.94Z" transform="translate(-257.06 -187.45)"/><path class="cls-5" d="M707.33,279.39c-3.05,1.09-3.57,9.39-2,15a25.85,25.85,0,0,0,3.63,7.43,59.73,59.73,0,0,0,6.37,7.57h0s6.26-2.36,8-5C727.56,297.93,712.76,277.44,707.33,279.39Z" transform="translate(-257.06 -187.45)"/><circle class="cls-4" cx="467.44" cy="98.05" r="30.5"/><path class="cls-5" d="M919.33,489.39c-3.05,1.09-3.57,9.39-2,15a25.85,25.85,0,0,0,3.63,7.43,59.73,59.73,0,0,0,6.37,7.57s6.26-2.36,8-5C939.56,507.93,924.76,487.44,919.33,489.39Z" transform="translate(-257.06 -187.45)"/><circle class="cls-4" cx="669.44" cy="311.05" r="26.5"/><path class="cls-6" d="M637,470.38c-.7-1.19-4.2-7.12-9.53-7.36-5.1-.23-9,4.88-9.63,5.68C605.37,485,635.11,542.29,661,545.49c2.49.31,11.11,1.37,13.83-3,1.91-3,.09-7.43-.39-8.59-2.5-6-8-8.83-11-10.67-10.53-6.41-22.13-19.51-24.29-32.4C637.75,482.15,641.29,477.65,637,470.38Z" transform="translate(-257.06 -187.45)"/><path class="cls-6" d="M799,619" transform="translate(-257.06 -187.45)"/><path class="cls-6" d="M958.33,578.91c-1.09.84-6.56,5-6.16,10.35.38,5.09,5.93,8.37,6.79,8.88,17.65,10.41,71-26,71-52.13,0-2.51,0-11.19-4.6-13.37-3.25-1.53-7.39.8-8.49,1.42-5.66,3.21-7.81,9-9.27,12.17-5.1,11.23-16.71,24.31-29.24,28C969.93,576.75,965,573.77,958.33,578.91Z" transform="translate(-257.06 -187.45)"/><path class="cls-3" d="M449.6,293.64c1.29-.46,7.78-2.78,9-8,1.19-5-3.09-9.78-3.76-10.53-13.61-15.32-75.53,3-83.59,27.89-.77,2.38-3.45,10.64.29,14.13,2.63,2.46,7.28,1.5,8.52,1.24,6.37-1.31,10.17-6.13,12.55-8.74,8.29-9.13,23.34-18,36.41-17.72C437.89,292.15,441.64,296.48,449.6,293.64Z" transform="translate(-257.06 -187.45)"/></svg>