<svg id="Layer_4" data-name="Layer 4" xmlns="http://www.w3.org/2000/svg" viewBox="0 0 548.82 766.7"><defs><style>.cls-1{fill:#ffeafb;}.cls-2,.cls-4{fill:#fff;}.cls-3{fill:none;}.cls-3,.cls-4{stroke:#fff;stroke-miterlimit:10;stroke-width:4px;}</style></defs><path class="cls-1" d="M934,301c-7.47-47,84.21-114.74,154-133,119.42-31.24,258.92,62.27,329,165,113.26,166,62.59,381.61-25,499-22.25,29.81-58.64,77.19-121,92-83.1,19.74-177.37-26.65-220-94-60.12-95-22.53-239.69-20-249,4.66-17.13,7.27-52,2-104-2.71-26.8-7.88-49-22-71-17.7-27.6-35.8-29.27-61-68C939.63,322.06,935.45,310.1,934,301Z" transform="translate(-933.57 -161.88)"/><path class="cls-2" d="M1101,342c14.91,17.69,35.21,46.44,47,86,23,77.09,6.94,172.71-25,181a24.28,24.28,0,0,1-22-6c-11.23-11.31-2.8-33.1,2-57,2.67-13.28,14-69.77-5-117-12.34-30.64-30.32-39.63-34-75-.69-6.58-3-29,6-33C1077,317.87,1089.51,326.5,1101,342Z" transform="translate(-933.57 -161.88)"/><circle class="cls-3" cx="352.93" cy="204.62" r="34.5"/><circle class="cls-3" cx="374.93" cy="471.62" r="34.5"/><path class="cls-4" d="M1266,373c-5.19-6.44,7.59-31.15,19-30,6.89.69,13.63,10.86,12,19C1294.36,375.16,1270.69,378.81,1266,373Z" transform="translate(-933.57 -161.88)"/><path class="cls-2" d="M1287.63,639.26c-5.2-6.44,7.59-31.15,19-30,6.89.7,13.63,10.86,12,19C1316,641.42,1292.32,645.07,1287.63,639.26Z" transform="translate(-933.57 -161.88)"/></svg>