<svg id="Layer_2" data-name="Layer 2" xmlns="http://www.w3.org/2000/svg" viewBox="0 0 958.97 906.33"><defs><style>.cls-1{fill:#efd3d7;}</style></defs><path class="cls-1" d="M946.07,204.57c-35.41-46.24-96.56-67.08-109.88-67.38-13.59-.31-60.15-1.29-94,7.93-180.38,49.11-272.26,222-272.26,222C420.56,431.75,340.5,536.62,360.05,664.36c16.88,110.31,81,198.42,146.5,251,117.55,94.38,252.64,105.89,341.85,120.24,87.2,14,145.22,8.23,216.09-11.89,42-11.92,203.45-66.26,243-219.33,30.69-118.92-30.71-225.92-35.41-233.86-76.36-128.75-195.81-93.23-257.61-227.25C987.82,285.59,981.69,251.1,946.07,204.57Z" transform="translate(-357.03 -137)"/></svg>