<svg id="Layer_8" data-name="Layer 8" xmlns="http://www.w3.org/2000/svg" viewBox="0 0 1144.97 715.57"><defs><style>.cls-1{fill:#efd3d7;}.cls-2{fill:none;stroke:#fbecef;stroke-miterlimit:10;stroke-width:4px;}.cls-3{fill:#fbecef;}</style></defs><path class="cls-1" d="M555,291c30.61-73,127.15-91,282-120,177.12-33.13,405.5-75.84,617,50,42.64,25.37,108.57,65.6,160,145,79.86,123.3,114.41,325.1,19,427-83.82,89.51-230,61.42-456,18-164.9-31.68-332.28-66.11-473-204C676.3,579.85,504.47,411.48,555,291Z" transform="translate(-545.76 -136.36)"/><circle class="cls-2" cx="346.74" cy="197.14" r="42.5"/><circle class="cls-2" cx="736.99" cy="308.89" r="44.25"/><path class="cls-3" d="M867,340c-4.78-6.15,23.09-40.81,32-37,4.14,1.77,3.93,11.76,2,18C895.52,338.66,870.51,344.51,867,340Z" transform="translate(-545.76 -136.36)"/><path class="cls-3" d="M1256.31,452c-4.78-6.15,23.1-40.81,32-37,4.15,1.77,3.94,11.77,2,18C1284.84,450.7,1259.82,456.55,1256.31,452Z" transform="translate(-545.76 -136.36)"/><path class="cls-3" d="M880,522c9-30.94,93.73-35.79,149-31,90.49,7.85,194.25,49.58,194,90-.06,10.13-6.68,24.27-17,28-11.77,4.25-25-6.25-36-14,0,0-28.19-19.82-80-40-38.67-15.06-101-21.51-154-5-12.75,4-33.17,11.82-46,2C881.46,545.46,877.16,531.75,880,522Z" transform="translate(-545.76 -136.36)"/></svg>