<svg id="Layer_6" data-name="Layer 6" xmlns="http://www.w3.org/2000/svg" viewBox="0 0 733.14 1043.12"><defs><style>.cls-1,.cls-3{fill:#dee2ff;}.cls-2{fill:#edf0fc;}.cls-3{stroke:#fff;stroke-miterlimit:10;stroke-width:6px;}</style></defs><path class="cls-1" d="M338,36c-17.94-.46-39.94-3.85-68-5-51-2.09-63.37,8.89-77,14C129,69,78.72,176.18,66,207-45.63,477.43,42.93,768.9,49,788c16.19,51,66.64,194.5,178,262,55.27,33.5,83.53,22.81,90,20,28.6-12.42,36.24-46.57,52-100,30.79-104.33,46.18-156.5,70-193,45.21-69.28,90-52.12,171-123,26.68-23.34,116.23-101.67,131-207C772.28,223.85,444.16,33.81,382,41,379.43,41.3,377,37,338,36Z" transform="translate(-9.95 -30.74)"/><path class="cls-2" d="M221,77c-31.16,23.14-66.72,40-98,112-12.18,28-28.18,58.61-37,83-9.53,26.36-23,62.12-35,104-20.59,71.58-19.1,126.39-5,133,7,3.27,20,14.09,34,0,16.61-16.76,22.63-65.74,25-70,27.55-49.64,36-106,36-106a449.21,449.21,0,0,1,64-133c49.78-70.48,113.75-57.68,106-93-4.56-20.79-14.5-34.78-38-37C262.17,69,239.41,63.33,221,77Z" transform="translate(-9.95 -30.74)"/><circle class="cls-3" cx="264.05" cy="424.26" r="46"/><circle class="cls-3" cx="477.55" cy="259.76" r="39.5"/><path class="cls-2" d="M364.57,615.37C355,605.6,373.52,559,397.93,526c19.94-27,40.24-39.6,80.84-64.85,56.67-35.25,75.51-32,86-27.38,8.09,3.53,19.49,11.47,19.25,20.17-.29,10.06-16,15.56-44.92,30.27-21.88,11.13-36.75,18.69-51.32,28.82-15.39,10.7-43.61,30.32-66.73,64.86-6.47,9.66-15.08,24.29-32.08,33.15C383.72,613.77,370,620.92,364.57,615.37Z" transform="translate(-9.95 -30.74)"/><path class="cls-2" d="M263,479c-2.89,1.89-27.16-16.38-23-35,2.62-11.74,15.77-20.12,19-18,2.68,1.76-3.05,9.7-3,24C256.06,467.77,265,477.72,263,479Z" transform="translate(-9.95 -30.74)"/><path class="cls-2" d="M484.31,317c-2.87,1.89-27-16.38-22.83-35,2.6-11.74,15.65-20.12,18.86-18,2.65,1.76-3,9.7-3,24C477.41,305.8,486.26,315.74,484.31,317Z" transform="translate(-9.95 -30.74)"/></svg>