<svg id="Layer_2" data-name="Layer 2" xmlns="http://www.w3.org/2000/svg" viewBox="0 0 441.19 441.19"><defs><style>.cls-1{fill:#8e9ab0;}.cls-2{fill:#dbccff;}.cls-3{fill:none;}.cls-3,.cls-5{stroke:#fff;stroke-miterlimit:10;stroke-width:4px;}.cls-4{fill:#edf0fc;}.cls-10,.cls-5{fill:#fff;}.cls-6{fill:#f6e3ff;}.cls-7{fill:#ffed85;}.cls-8{fill:#ffdc31;}.cls-9{fill:#c7fcff;}.cls-11{fill:#64bdff;}</style></defs><path class="cls-1" d="M1060.89,9.32" transform="translate(-214.37 -2.57)"/><circle class="cls-2" cx="220.59" cy="220.59" r="220.59"/><ellipse class="cls-3" cx="242.13" cy="209.19" rx="1.17" ry="1.84"/><path class="cls-4" d="M460.35,207.46l-.4-1.59.33-.18.4,1.59Z" transform="translate(-214.37 -2.57)"/><path class="cls-4" d="M460.68,207.26h0l.16-.1.15-.1-.08.08-.1.06Z" transform="translate(-214.37 -2.57)"/><path class="cls-4" d="M461,207l-.4-1.59a2.27,2.27,0,0,1-.32.22l.41,1.59Z" transform="translate(-214.37 -2.57)"/><path class="cls-4" d="M460.67,207.28h0l-.15.1-.16.09h.09l.09-.06Z" transform="translate(-214.37 -2.57)"/><circle class="cls-3" cx="300.79" cy="165.42" r="32.06"/><ellipse class="cls-3" cx="105.96" cy="160.49" rx="32.88" ry="31.24"/><path class="cls-5" d="M301.61,161.63c-3.16-3.54,5.83-21.18,16.19-20.19,4.25.4,9,4,9.11,7.69C327,157.11,305.06,165.48,301.61,161.63Z" transform="translate(-214.37 -2.57)"/><path class="cls-5" d="M493.4,168.82c-3.44-4.17,6.34-25,17.61-23.8,4.61.48,9.86,4.68,9.91,9C521,163.5,497.15,173.37,493.4,168.82Z" transform="translate(-214.37 -2.57)"/><path class="cls-6" d="M381.91,213.16l46.34-6.94c3.44,22.93-4.16,43.08-16.95,45S385.34,236.09,381.91,213.16Z" transform="translate(-214.37 -2.57)"/><path class="cls-7" d="M275.94,163.46l-.09.17-.28.49c-.45,56.94-26.57,103-59,104.17v.07c21.92.58,41,23.46,51.33,57.3a196,196,0,0,1,7.95,48.5v.53a.76.76,0,0,0,.18.09V163.28Z" transform="translate(-214.37 -2.57)"/><path class="cls-7" d="M333,268.13c-31.32-3.24-56.21-48.43-56.65-104l-.28-.49-.11-.19-.09-.15V374.58l.18.1v-.6a194.48,194.48,0,0,1,9-52c10.14-30.71,27.69-51.62,47.86-53.62C333,268.37,333,268.29,333,268.13Z" transform="translate(-214.37 -2.57)"/><path class="cls-7" d="M275.86,374.62l.2.11v-.6a194.56,194.56,0,0,1,9-52C284,304.71,280.63,292,276.58,292a1.7,1.7,0,0,0-.55.08l-.2.07c-4,1.57-7.2,15.46-7.95,33.51a195.58,195.58,0,0,1,7.95,48.5Z" transform="translate(-214.37 -2.57)"/><path class="cls-8" d="M354.3,28.81l-.05.09-.14.25c-.23,30.24-13.45,54.7-29.86,55.32h0c11.09.31,20.76,12.46,26,30.41a108.48,108.48,0,0,1,4,25.75v.28l.09.05V28.71Z" transform="translate(-214.37 -2.57)"/><path class="cls-8" d="M383.17,84.39c-15.86-1.71-28.45-25.73-28.68-55.22l-.13-.27-.06-.09-.05-.09V141l.09.05v-.31a106.5,106.5,0,0,1,4.59-27.62c5.13-16.31,14-27.41,24.22-28.48Z" transform="translate(-214.37 -2.57)"/><path class="cls-8" d="M354.25,141l.11.06v-.32a106.91,106.91,0,0,1,4.58-27.62c-.53-9.25-2.26-16-4.31-16a.81.81,0,0,0-.27,0h-.11c-2,.83-3.64,8.22-4,17.8a108.48,108.48,0,0,1,4,25.75Z" transform="translate(-214.37 -2.57)"/><path class="cls-7" d="M597.37,81.25l-.09.18-.28.48c-.45,56.94-26.57,103-59,104.17v.07c21.92.58,41,23.46,51.33,57.3a195.51,195.51,0,0,1,7.95,48.5v.53a.77.77,0,0,0,.18.1V81.07Z" transform="translate(-214.37 -2.57)"/><path class="cls-7" d="M654.42,185.92c-31.32-3.24-56.2-48.43-56.65-104l-.28-.49-.11-.19-.09-.15V292.37l.18.1v-.59a194.56,194.56,0,0,1,9-52c10.14-30.71,27.69-51.62,47.86-53.62C654.43,186.17,654.42,186.08,654.42,185.92Z" transform="translate(-214.37 -2.57)"/><path class="cls-7" d="M597.29,292.41l.2.11v-.6a194.56,194.56,0,0,1,9-52c-1.06-17.41-4.47-30.15-8.52-30.15a2,2,0,0,0-.55.08l-.2.07c-4,1.57-7.2,15.46-8,33.51a195.59,195.59,0,0,1,8,48.51Z" transform="translate(-214.37 -2.57)"/><path class="cls-8" d="M582,157.87l0,.09-.14.26c-.23,30.24-13.45,54.7-29.85,55.31h0c11.09.32,20.75,12.47,26,30.42a108.48,108.48,0,0,1,4,25.75V270l.09,0V157.78Z" transform="translate(-214.37 -2.57)"/><path class="cls-8" d="M610.88,213.46c-15.85-1.72-28.45-25.72-28.67-55.23l-.14-.26-.06-.1,0-.08V270l.09.05v-.31a107.5,107.5,0,0,1,4.59-27.63c5.14-16.31,14-27.4,24.23-28.47Z" transform="translate(-214.37 -2.57)"/><path class="cls-8" d="M582,270l.11.06v-.32a106.64,106.64,0,0,1,4.59-27.63c-.54-9.24-2.26-16-4.31-16a.87.87,0,0,0-.28,0H582c-2,.82-3.64,8.22-4,17.8a108.4,108.4,0,0,1,4,25.74Z" transform="translate(-214.37 -2.57)"/><circle class="cls-6" cx="113.77" cy="160.9" r="11.1"/><circle class="cls-6" cx="312.3" cy="166.25" r="11.51"/><circle class="cls-9" cx="103.9" cy="170.77" r="9.45"/><circle class="cls-9" cx="304.49" cy="175.7" r="8.63"/><circle class="cls-10" cx="183.23" cy="230.37" r="4.11"/><circle class="cls-10" cx="206.66" cy="217.63" r="6.17"/><circle class="cls-10" cx="274.89" cy="339.29" r="6.17"/><circle class="cls-10" cx="136.37" cy="292.85" r="8.22"/><circle class="cls-10" cx="249.41" cy="101.71" r="6.99"/><circle class="cls-10" cx="257.63" cy="322.03" r="2.88"/><circle class="cls-10" cx="224.34" cy="96.37" r="1.64"/><circle class="cls-10" cx="350.52" cy="294.9" r="2.06"/><circle class="cls-10" cx="375.19" cy="319.56" r="6.99"/><circle class="cls-11" cx="311.89" cy="174.88" r="8.63"/><circle class="cls-11" cx="113.77" cy="172.41" r="8.63"/></svg>