<svg xmlns="http://www.w3.org/2000/svg" viewBox="0 0 414.98 590.19"><defs><style>.cls-1{fill:#dee2ff;}.cls-2{fill:#cbbfd3;}.cls-3{fill:#eef1fc;}.cls-4{fill:#fff;}.cls-5{fill:none;stroke:#fff;stroke-miterlimit:10;stroke-width:4px;}</style></defs><g id="Layer_3" data-name="Layer 3"><path class="cls-1" d="M414,343c-18.76-57.6-39.88-122.42-105-157-60.84-32.3-139.42-27.24-194,8C1.72,267.14,27.16,447.49,34,496c7.13,50.55,32,227,147,255,90,21.9,183.59-59.61,225-129C470,514.81,432.05,398.43,414,343Z" transform="translate(-26.72 -164.44)"/></g><g id="Layer_1" data-name="Layer 1"><path class="cls-2" d="M294,330" transform="translate(-26.72 -164.44)"/><path class="cls-3" d="M309.82,322.5c2.57-6.25,1.24-15.62-4-18.23-12-5.91-16.27-1.47-20.78.38C247.54,320,223.61,401.75,221.26,410c-1.62,5.69-18.07,65.28-2.33,98.6,2.36,5,7,14.85,15.23,14.76,6.19-.07,13-5.74,15.54-12.29,3.52-8.93-1.3-18.17-3.06-22.11-16-35.91,13.89-102.08,29.36-126.33,10.85-17,16.27-25.51,23.88-30.47C303.14,330.05,307.67,327.71,309.82,322.5Z" transform="translate(-26.72 -164.44)"/><path class="cls-4" d="M240.75,260.65c-3.05,1.09-3.56,9.39-2,15a25.85,25.85,0,0,0,3.63,7.43,59.73,59.73,0,0,0,6.37,7.57h0s6.26-2.36,8-5C261,279.19,246.18,258.7,240.75,260.65Z" transform="translate(-26.72 -164.44)"/><circle class="cls-5" cx="230.78" cy="105.06" r="30.5"/><circle class="cls-5" cx="116.78" cy="248.06" r="30.5"/><path class="cls-4" d="M127,405c-3,1.09-3.56,9.39-2,15a25.34,25.34,0,0,0,3.64,7.42A58.81,58.81,0,0,0,135,435h0s6.27-2.36,8-5C147.23,423.51,132.43,403,127,405Z" transform="translate(-26.72 -164.44)"/><path class="cls-3" d="M148.47,676.64c-1.3-.64-7.8-3.85-12.06-.07-4.08,3.63-3.8,11.63-3.76,12.87.87,25.45,60.6,59.53,82.61,43.12,2.12-1.58,9.43-7,8.74-13.36-.49-4.44-4.71-7.39-5.83-8.17-5.79-4-11.79-2.71-15.29-2.25-12.23,1.63-29.57-2.54-39.52-13.61C156.62,687.68,156.45,680.57,148.47,676.64Z" transform="translate(-26.72 -164.44)"/><path class="cls-3" d="M182.76,201.76c1.32-.7,7.93-4.21,8.92-9.89.95-5.44-3.78-9.82-4.52-10.5-15-13.93-78.37,15.63-85.29,43.19-.67,2.65-3,11.81,1.13,14.88,2.87,2.16,7.65.38,8.92-.09,6.56-2.44,10.23-8.15,12.54-11.3,8.09-11,23.23-22.88,36.83-24.7C170.5,202.12,174.65,206.07,182.76,201.76Z" transform="translate(-26.72 -164.44)"/><path class="cls-3" d="M310.24,323c2.58-6.25,1.25-15.63-4-18.24-12-5.91-16.28-1.47-20.78.38C248,320.55,224,402.27,221.68,410.54c-1.62,5.68-18.06,65.27-2.33,98.6,2.36,5,7,14.84,15.24,14.76,6.18-.07,13-5.74,15.54-12.29,3.51-8.94-1.31-18.17-3.06-22.12-16-35.9,13.88-102.08,29.35-126.33,10.85-17,16.27-25.51,23.88-30.47C303.57,330.57,308.1,328.22,310.24,323Z" transform="translate(-26.72 -164.44)"/><path class="cls-4" d="M240.5,261.1c-3.05,1.1-3.56,9.39-2,15a25.56,25.56,0,0,0,3.64,7.43,59.26,59.26,0,0,0,6.36,7.57h0s6.27-2.36,8-5C260.74,279.64,245.94,259.15,240.5,261.1Z" transform="translate(-26.72 -164.44)"/><circle class="cls-5" cx="230.78" cy="106.06" r="30.5"/><path class="cls-3" d="M179.83,201.37c1.32-.7,7.93-4.21,8.92-9.89.95-5.44-3.78-9.82-4.52-10.5-15-13.93-78.37,15.62-85.29,43.19-.66,2.65-3,11.81,1.13,14.88,2.87,2.16,7.65.38,8.92-.09,6.56-2.44,10.23-8.15,12.54-11.3,8.09-11,23.23-22.88,36.83-24.7C167.57,201.72,171.72,205.68,179.83,201.37Z" transform="translate(-26.72 -164.44)"/><path class="cls-4" d="M126.5,405.1c-3,1.1-3.56,9.39-2,15a25.56,25.56,0,0,0,3.64,7.43,59.26,59.26,0,0,0,6.36,7.57h0s6.27-2.36,8-5C146.74,423.64,131.94,403.15,126.5,405.1Z" transform="translate(-26.72 -164.44)"/><circle class="cls-5" cx="116.78" cy="248.06" r="30.5"/><path class="cls-3" d="M143.8,676.88c-1.3-.64-7.81-3.84-12.06-.06-4.08,3.62-3.8,11.62-3.76,12.86.87,25.45,60.6,59.54,82.61,43.12,2.12-1.57,9.43-7,8.74-13.35-.49-4.45-4.71-7.4-5.83-8.18-5.79-4-11.79-2.71-15.29-2.24-12.23,1.62-29.57-2.55-39.52-13.62C152,687.92,151.78,680.81,143.8,676.88Z" transform="translate(-26.72 -164.44)"/></g></svg>