<svg id="Layer_3" data-name="Layer 3" xmlns="http://www.w3.org/2000/svg" viewBox="0 0 633.02 705.66"><defs><style>.cls-1{fill:#cbbfd3;}.cls-2,.cls-4{fill:#e6deed;}.cls-3{fill:none;}.cls-3,.cls-4{stroke:#e6deed;stroke-miterlimit:10;stroke-width:4px;}</style></defs><path class="cls-1" d="M521,551c-5.39-99.44,37.23-172.5,48-190,50.29-81.74,122-115.89,160-134,31.41-15,101.3-47.2,192-39,50.89,4.6,94.69,8.56,123,41,14.81,17,24.37,40.57,17,222-4,99.1-7.67,111.51,4,138,26.68,60.55,77.15,67,87,118,10,52.06-31.85,100.57-40,110-82.23,95.19-284.59,101.28-423,12C675.4,820.23,530.34,723.27,521,551Z" transform="translate(-520.53 -186.68)"/><path class="cls-2" d="M952,384c-38.44,33.13-55.27,102.43-43,167,14.18,74.64,67.92,146.58,109,145,1.93-.07,16.43-3.71,25-11,14.5-12.34-1.44-35.69-12-42-38-22.73-47.65-82.64-52-124-4-38,6-40,19-109,3.5-18.58-2.35-29.26-12-34C974.15,370.18,957.3,379.44,952,384Z" transform="translate(-520.53 -186.68)"/><circle class="cls-3" cx="208.47" cy="148.32" r="68"/><circle class="cls-3" cx="208.47" cy="549.32" r="68"/><path class="cls-4" d="M698,289c-21.17,13.7-24.19,47.41-10,66,3,4,8.74,11.45,16,11,20.79-1.29,42.14-66.66,25-81C720.85,278.18,705.49,284.15,698,289Z" transform="translate(-520.53 -186.68)"/><path class="cls-4" d="M697.86,692.8c-21.16,13.7-24.19,47.41-10,66,3.06,4,8.75,11.45,16,11,20.8-1.29,42.15-66.66,25-81C720.71,682,705.35,688,697.86,692.8Z" transform="translate(-520.53 -186.68)"/></svg>