<svg id="Layer_1" data-name="Layer 1" xmlns="http://www.w3.org/2000/svg" viewBox="0 0 811.18 536.06"><defs><style>.cls-1{fill:#eee6fd;}.cls-2{fill:#f7dfe9;}.cls-3{fill:#cbbfd3;}.cls-4{fill:#f8f5ff;}.cls-5{fill:none;stroke:#fff;stroke-miterlimit:10;stroke-width:4px;}.cls-6{fill:#fff;}.cls-7{fill:#ffeef6;}.cls-8{fill:#e6deed;}</style></defs><circle class="cls-1" cx="207.25" cy="207.25" r="207.25"/><circle class="cls-2" cx="597.89" cy="322.78" r="213.28"/><path class="cls-3" d="M56.68,70.07" transform="translate(19.54 10.5)"/><path class="cls-4" d="M286,292c5.51-.25,11.11-5.08,12.49-10.57,1.92-7.69-4.81-15.07-7.69-18.26-24.19-26.55-93-14.71-99.94-13.45-4.8.87-54.61,10.38-74,37.48-2.89,4.06-8.65,12.07-5.77,19.22,2.15,5.38,8.65,9,14.41,8.65,7.84-.51,13-8.42,15.38-11.53,21.22-28.33,80.51-28.83,103.78-25,16.34,2.66,24.48,4,30.76,8.65C278.11,289.2,281.39,292.21,286,292Z" transform="translate(19.54 10.5)"/><circle class="cls-5" cx="96.09" cy="242.68" r="25.47"/><path class="cls-6" d="M85.88,214.06c-1.06-2.88-9-3.42-14.41-1.92a24.84,24.84,0,0,0-7.14,3.5,56.76,56.76,0,0,0-7.28,6.11s2.27,6,4.81,7.69C68.06,233.51,87.75,219.29,85.88,214.06Z" transform="translate(19.54 10.5)"/><path class="cls-7" d="M537.89,433.18c2.55,4.79,8.08,11.63,13.84,11,6.19-.71,9.67-9.63,10.9-12.86,8.31-21.49-2.8-68.32-37.8-89.56-37.56-22.8-86.79-6.5-91.94,6.73a16.7,16.7,0,0,0-.54,11.26c2.4,6.19,9.12,8.35,9.54,8.48,8,2.44,14.32-3.8,22.06-7.28,17.6-7.95,42.65-1.66,56.12,11.73,8.12,8.06,14.42,21.08,15.32,34C536.21,417.34,533.07,424.09,537.89,433.18Z" transform="translate(19.54 10.5)"/><path class="cls-6" d="M461.93,242.35c-2.94,1.05-3.44,9-1.93,14.41a24.81,24.81,0,0,0,3.49,7.14,58.38,58.38,0,0,0,6.12,7.28h0s6-2.27,7.69-4.81C481.37,260.17,467.14,240.48,461.93,242.35Z" transform="translate(19.54 10.5)"/><circle class="cls-5" cx="497.56" cy="261.75" r="29.31"/><path class="cls-7" d="M589.26,145.84c1.32,0,7.94-.11,10.68-4.45,2.62-4.14.22-9.83-.15-10.74-7.66-18.17-69.64-20.66-84.65-.59-1.44,1.93-6.44,8.62-4.09,13,1.6,3,6.16,3.62,7.36,3.77,6.2.78,11.18-2.46,14.14-4.09,10.37-5.73,26.83-9.17,38.62-4.83C579.08,140.85,581.15,146,589.26,145.84Z" transform="translate(19.54 10.5)"/><path class="cls-8" d="M542,347.79" transform="translate(19.54 10.5)"/><path class="cls-7" d="M718.24,408.33c-.71,1.11-4.31,6.65-2.22,11.36,2,4.48,8.07,5.65,9,5.83,19.34,3.71,55.82-46.5,47.36-70.15-.81-2.27-3.62-10.12-8.49-10.61-3.43-.33-6.42,3.12-7.22,4-4.08,4.73-4.15,10.67-4.45,14-1,11.81-7.25,27.41-17.39,34.8C728,402.62,722.61,401.52,718.24,408.33Z" transform="translate(19.54 10.5)"/><circle class="cls-5" cx="306.76" cy="186.73" r="29.31"/><path class="cls-6" d="M266.42,159.45c-2.93,1-3.42,9-1.92,14.41A24.45,24.45,0,0,0,268,181a55.87,55.87,0,0,0,6.11,7.27h0s6-2.26,7.69-4.8C285.87,177.26,271.65,157.57,266.42,159.45Z" transform="translate(19.54 10.5)"/><path class="cls-4" d="M187.18,23.19c1.24-.44,7.48-2.67,8.65-7.68,1.14-4.81-3-9.4-3.61-10.12-13.08-14.72-72.58,2.88-80.33,26.8-.74,2.29-3.32,10.22.28,13.58,2.53,2.36,7,1.44,8.19,1.19,6.12-1.26,9.77-5.89,12.06-8.4,8-8.77,22.43-17.3,35-17C175.93,21.76,179.53,25.92,187.18,23.19Z" transform="translate(19.54 10.5)"/><path class="cls-6" d="M642,356.4c-2.93,1.05-3.43,9-1.93,14.42a25.07,25.07,0,0,0,3.49,7.14,58.29,58.29,0,0,0,6.12,7.27h0s6-2.27,7.69-4.8C661.45,374.22,647.22,354.53,642,356.4Z" transform="translate(19.54 10.5)"/><circle class="cls-5" cx="677.65" cy="375.8" r="29.31"/></svg>