<svg id="Layer_6" data-name="Layer 6" xmlns="http://www.w3.org/2000/svg" viewBox="0 0 733.14 1043.1"><defs><style>.cls-1{fill:#dee2ff;}</style></defs><path class="cls-1" d="M479,24c-17.93.77-39.94-3.85-68-5-51-2.09-63,10-77,14C271.36,50.9,219.72,164.18,207,195,95.37,465.43,183.93,756.9,190,776c16.19,51,66.64,194.5,178,262,55.27,33.5,83.53,22.81,90,20,28.6-12.42,36.24-46.57,52-100,30.79-104.33,46.18-156.5,70-193,45.21-69.28,90-52.12,171-123,26.68-23.34,116.23-101.67,131-207C913.28,211.85,585.16,21.81,523,29,520.43,29.3,505.37,22.87,479,24Z" transform="translate(-150.95 -18.76)"/></svg>