<svg id="Layer_2" data-name="Layer 2" xmlns="http://www.w3.org/2000/svg" viewBox="0 0 487 487"><defs><style>.cls-1{fill:#8e9ab0;}.cls-2{fill:#b7c3db;}.cls-3{fill:none;}.cls-3,.cls-4{stroke:#fff;stroke-miterlimit:10;stroke-width:4px;}.cls-4{fill:#fff;}</style></defs><path class="cls-1" d="M1259,47.23" transform="translate(-174.45 31.38)"/><circle class="cls-1" cx="243.5" cy="243.5" r="243.5"/><path class="cls-2" d="M423.74,156.38l-2.13,30.12c-3.12-.4-6.27-.75-9.45-1l2.13-30.06C417.43,155.68,420.62,156,423.74,156.38Z" transform="translate(-174.45 31.38)"/><path class="cls-2" d="M559.12,255c-.37-.06-.76-.15-1.15-.22a49.2,49.2,0,0,1-28.29-17.15c-11-13.48-27.26-25.28-47.49-34.4a219.39,219.39,0,0,0-62.46-17.1c-3.11-.4-6.27-.74-9.45-1l2.11-29.77c-1.56-.15-3.13-.27-4.69-.38s-3.09-.21-4.62-.28a10.7,10.7,0,0,1,2.59-.13l2.77.18c1.32.1,2.65.2,4,.32,30.19,2.54,58.06,9.51,81.72,19.62,39.75,17,67.54,42.79,74.17,71.27v.1C569.53,251.34,564.71,256,559.12,255Z" transform="translate(-174.45 31.38)"/><path class="cls-2" d="M414.31,155.12v.29c-1.56-.15-3.13-.27-4.69-.38s-3.09-.21-4.62-.28a11.23,11.23,0,0,1,2.59-.13l2.77.18C411.66,154.87,413,155,414.31,155.12Z" transform="translate(-174.45 31.38)"/><path class="cls-2" d="M405.21,155l-2.13,30.12c3.14,0,6.3.14,9.5.31l2.13-30.06C411.52,155.14,408.36,155,405.21,155Z" transform="translate(-174.45 31.38)"/><path class="cls-2" d="M255.43,233.3l1.17-.05a49.22,49.22,0,0,0,30.42-13c12.82-11.8,30.56-21.19,51.87-27.37a220.31,220.31,0,0,1,64.25-8.13c3.14.05,6.31.17,9.5.34l2.11-29.77c1.56.08,3.13.18,4.69.29s3.09.23,4.62.37a11.63,11.63,0,0,0-2.55-.5l-2.77-.2c-1.32-.1-2.65-.18-4-.25-30.25-1.74-58.83,1.23-83.67,7.91-41.75,11.2-72.9,32.85-83.47,60.11v.09C245.59,228.21,249.72,233.52,255.43,233.3Z" transform="translate(-174.45 31.38)"/><path class="cls-2" d="M414.73,155v.29c1.56.08,3.13.18,4.69.29s3.09.23,4.62.37a11.63,11.63,0,0,0-2.55-.5l-2.77-.2C417.43,155.18,416.05,155.1,414.73,155Z" transform="translate(-174.45 31.38)"/><circle class="cls-3" cx="369.29" cy="137.26" r="32.5"/><circle class="cls-3" cx="112.65" cy="126.24" r="32.5"/><path class="cls-4" d="M262.1,97.24c-3.13-3.68,5.76-22,16-21,4.19.42,9,4.13,9,8C287.18,92.54,265.51,101.24,262.1,97.24Z" transform="translate(-174.45 31.38)"/><path class="cls-4" d="M518.74,108.26c-3.13-3.68,5.76-22,16-21,4.19.42,9,4.12,9,8C543.82,103.56,522.15,112.26,518.74,108.26Z" transform="translate(-174.45 31.38)"/><path class="cls-2" d="M281,356.65c-1-.84-6.16-5.08-11.33-3.47-5,1.52-7.12,7.5-7.46,8.44-7,19.06,38.72,61.46,64.45,55.64,2.46-.55,11-2.48,12.28-7.36.91-3.43-2.16-6.82-3-7.72-4.19-4.66-10.24-5.4-13.68-6.07-12-2.31-27-10.39-33-21.43C285.25,367.17,287.27,361.86,281,356.65Z" transform="translate(-174.45 31.38)"/><path class="cls-2" d="M525.83,36c1.2.57,7.24,3.39,11.84.54,4.43-2.71,5-9,5.13-10,2-20.2-52.83-49.87-76.3-37.82-2.24,1.15-10,5.15-10.06,10.19,0,3.55,3.8,6.07,4.82,6.74C466.48,9,472.52,8.24,476,8c12.19-.75,28.72,3.34,37.28,12.53C519.06,26.84,518.44,32.48,525.83,36Z" transform="translate(-174.45 31.38)"/></svg>