<svg id="Layer_1" data-name="Layer 1" xmlns="http://www.w3.org/2000/svg" viewBox="0 0 785.09 442.11"><defs><style>.cls-1{fill:#efd3d7;}.cls-2{fill:#cbbfd3;}.cls-3{fill:#fbecef;}.cls-4{fill:none;stroke:#fff;stroke-miterlimit:10;stroke-width:4px;}.cls-5{fill:#fff;}.cls-6{fill:#e6deed;}</style></defs><circle class="cls-1" cx="207.25" cy="234.86" r="207.25"/><circle class="cls-2" cx="571.8" cy="213.28" r="213.28"/><path class="cls-2" d="M56.68,136.52" transform="translate(-6.55 -44.35)"/><path class="cls-3" d="M317.57,171.33c-.25-5.52-5.08-11.11-10.57-12.5-7.69-1.92-15.07,4.81-18.26,7.69-26.55,24.19-14.71,93-13.45,99.94.86,4.81,10.38,54.62,37.48,74,4.06,2.88,12.07,8.65,19.22,5.76,5.38-2.15,9-8.65,8.65-14.41-.51-7.83-8.42-13-11.54-15.38-28.33-21.21-28.83-80.51-25-103.78,2.66-16.34,4-24.48,8.65-30.75C314.77,179.21,317.78,175.92,317.57,171.33Z" transform="translate(-6.55 -44.35)"/><circle class="cls-4" cx="239.43" cy="361.94" r="25.47"/><path class="cls-5" d="M227.87,397c-2.89,1.06-3.43,9-1.93,14.42a25.09,25.09,0,0,0,3.5,7.14,57.36,57.36,0,0,0,6.11,7.27s6-2.27,7.69-4.8C247.32,414.77,233.09,395.08,227.87,397Z" transform="translate(-6.55 -44.35)"/><path class="cls-6" d="M559.27,125.42c-3.66-4-10.72-9.25-16.14-7.2-5.82,2.23-7,11.74-7.35,15.18-2.68,22.88,19.76,65.45,59,77.28,42.07,12.72,85.67-15.35,87.36-29.46a16.73,16.73,0,0,0-2.29-11c-3.86-5.4-10.91-5.81-11.36-5.84-8.37-.35-12.92,7.26-19.54,12.57-15,12.09-40.89,12.24-57.27,2.64-9.87-5.79-19.22-16.82-23.33-29.14C564.86,140.34,566.22,133,559.27,125.42Z" transform="translate(-6.55 -44.35)"/><path class="cls-5" d="M451.46,210.28c-2.93,1-3.43,9-1.92,14.41a24.81,24.81,0,0,0,3.49,7.14,56.71,56.71,0,0,0,6.12,7.28h0s6-2.27,7.69-4.81C470.9,228.09,456.68,208.4,451.46,210.28Z" transform="translate(-6.55 -44.35)"/><circle class="cls-4" cx="461.01" cy="174.82" r="29.31"/><path class="cls-6" d="M411.34,303.32c-.54-1.22-3.21-7.27-8.27-8.1-4.84-.8-9.14,3.64-9.83,4.33-13.74,14.15,8.17,72.18,32.52,78.16,2.34.57,10.44,2.56,13.53-1.3,2.16-2.65.93-7.08.6-8.25-1.71-6-6.64-9.33-9.29-11.42-9.33-7.31-18.92-21.12-19.52-33.66C410.72,314.63,414.61,310.74,411.34,303.32Z" transform="translate(-6.55 -44.35)"/><path class="cls-6" d="M542,414.25" transform="translate(-6.55 -44.35)"/><path class="cls-6" d="M616.25,433.2c-1.15.64-6.94,3.82-7.32,9-.37,4.89,4.44,8.8,5.19,9.41C629.41,464,685.29,437,689,412.11c.35-2.38,1.59-10.63-2.48-13.36-2.87-1.91-7.13-.29-8.27.14-5.83,2.25-8.7,7.45-10.54,10.25-6.44,9.95-19.33,20.73-31.77,22.46C627.58,432.8,623.32,429.26,616.25,433.2Z" transform="translate(-6.55 -44.35)"/><circle class="cls-4" cx="193.23" cy="125.29" r="29.31"/><path class="cls-5" d="M181,159.55c-2.93,1-3.42,9-1.92,14.41a24.33,24.33,0,0,0,3.5,7.14,56.63,56.63,0,0,0,6.11,7.28h0s6-2.27,7.69-4.81C200.49,177.36,186.26,157.67,181,159.55Z" transform="translate(-6.55 -44.35)"/><path class="cls-3" d="M192.18,105.39c1.24-.45,7.48-2.68,8.65-7.69,1.14-4.81-3-9.4-3.61-10.12-13.08-14.72-72.58,2.88-80.33,26.8-.74,2.29-3.32,10.23.28,13.58,2.53,2.36,7,1.44,8.19,1.19,6.12-1.26,9.77-5.89,12.06-8.4,8-8.77,22.43-17.3,35-17C180.93,104,184.53,108.11,192.18,105.39Z" transform="translate(-6.55 -44.35)"/><path class="cls-5" d="M622.12,295.25c-2.93,1-3.43,9-1.92,14.41a24.81,24.81,0,0,0,3.49,7.14,56.71,56.71,0,0,0,6.12,7.28h0s6-2.27,7.69-4.81C641.56,313.06,627.34,293.37,622.12,295.25Z" transform="translate(-6.55 -44.35)"/><circle class="cls-4" cx="631.67" cy="259.79" r="29.31"/></svg>