<svg id="Layer_1" data-name="Layer 1" xmlns="http://www.w3.org/2000/svg" viewBox="0 0 378.48 407.11"><defs><style>.cls-1{fill:#bde0fe;}.cls-2{fill:#ffafcc;}.cls-3{fill:#cbbfd3;}.cls-4{fill:none;stroke:#fff;stroke-miterlimit:10;stroke-width:4px;}.cls-5{fill:#fff;}.cls-6{fill:#ffdeeb;}.cls-7{fill:#ffed85;}.cls-8{fill:#71bed3;}.cls-9{fill:#ffdc31;}</style></defs><circle class="cls-1" cx="185.3" cy="185.3" r="185.3"/><path class="cls-2" d="M207.19,170.74c14.37,12.88,18.9,31.25,10.14,41s-27.53,7.26-41.9-5.62l-.8-.73L206.42,170Z"/><path class="cls-3" d="M219.88,163.38"/><circle class="cls-4" cx="189.98" cy="93.51" r="24.99"/><circle class="cls-4" cx="89.85" cy="201.65" r="24.99"/><path class="cls-5" d="M179.6,89.81c-2.5.91-2.91,7.7-1.63,12.3a20.71,20.71,0,0,0,3,6.09,48.18,48.18,0,0,0,5.21,6.2h0s5.14-1.94,6.56-4.1C196.19,105,184.06,88.22,179.6,89.81Z"/><path class="cls-6" d="M118.42,45.82c1-.74,5.85-4.46,5.9-9.19,0-4.52-4.37-7.43-5.06-7.89-14-9.26-61.28,23.09-63.2,46.31-.18,2.23-.85,10,2.9,11.88,2.61,1.36,6.24-.71,7.2-1.26,5-2.85,7.19-8,8.63-10.81,5.08-10,15.73-21.6,26.49-24.89C108.55,47.74,112.42,50.39,118.42,45.82Z"/><path class="cls-5" d="M78.08,194c-2.46.91-2.92,7.7-1.64,12.3a21.34,21.34,0,0,0,3,6.09,50.6,50.6,0,0,0,5.21,6.2h0s5.14-1.94,6.56-4.1C94.66,209.18,82.54,192.39,78.08,194Z"/><path class="cls-6" d="M128.65,327.55c-1.17-.21-7-1.28-9.52,2.66-2.4,3.76-.39,10-.08,11,6.38,19.87,61.1,33.37,74.78,15.49,1.32-1.71,5.86-7.63,3.9-12.48-1.39-3.39-5.37-4.78-6.43-5.14-5.46-1.86-9.9.51-12.56,1.66-9.27,4-23.88,4.61-34.2-1.89C137.59,334.38,135.82,328.82,128.65,327.55Z"/><circle class="cls-5" cx="197.04" cy="185.3" r="2.5"/><circle class="cls-5" cx="220.72" cy="178.9" r="3.8"/><circle class="cls-5" cx="185.3" cy="16.31" r="8.34"/><circle class="cls-5" cx="114.61" cy="398.41" r="8.7"/><circle class="cls-5" cx="185.3" cy="284.25" r="5.99"/><circle class="cls-5" cx="251.18" cy="396.1" r="2.3"/><path class="cls-7" d="M321.62,8.55l-.1.17-.27.48C320.79,66,294.75,111.86,262.44,113v.06c21.85.59,40.88,23.39,51.16,57.12a194.22,194.22,0,0,1,7.92,48.34v.52l.18.1V8.41Z"/><path class="cls-7" d="M378.47,112.93c-31.22-3.23-56-48.28-56.47-103.67l-.28-.48-.1-.19-.1-.16V219.08l.18.1v-.59a192.34,192.34,0,0,1,9.05-51.84c10.11-30.62,27.6-51.45,47.71-53.45A1.54,1.54,0,0,0,378.47,112.93Z"/><path class="cls-7" d="M321.52,219.08l.2.11v-.64a192.34,192.34,0,0,1,9-51.84c-1.06-17.36-4.46-30.06-8.49-30.06a2.1,2.1,0,0,0-.56.08l-.2.07c-4,1.57-7.17,15.41-7.92,33.41a194.22,194.22,0,0,1,7.92,48.34Z"/><path class="cls-7" d="M64.74,245.31l-.06.12-.19.34C64.18,286,46.72,318.6,25.05,319.43h0C39.7,319.85,52.47,336,59.36,360a145.67,145.67,0,0,1,5.32,34.28v.37l.12.07V245.18Z"/><path class="cls-7" d="M102.87,319.33C81.93,317,65.3,285.08,65,245.78l-.19-.34-.07-.13-.06-.12V394.64l.11.07v-.42a143.14,143.14,0,0,1,6.09-36.74c6.78-21.72,18.51-36.5,32-37.92C102.88,319.55,102.87,319.42,102.87,319.33Z"/><path class="cls-7" d="M64.68,394.64l.13.08v-.43a142.68,142.68,0,0,1,6.07-36.74c-.71-12.31-3-21.32-5.7-21.32a1.15,1.15,0,0,0-.37.06h-.13C62,337.41,59.86,347.23,59.36,360a145.67,145.67,0,0,1,5.32,34.28Z"/><circle class="cls-8" cx="193.39" cy="84.57" r="11.08"/><circle class="cls-9" cx="201.73" cy="92.38" r="10.03"/><circle class="cls-8" cx="94.47" cy="191.34" r="11.08"/><circle class="cls-9" cx="104.49" cy="197.47" r="10.03"/><circle class="cls-5" cx="113.3" cy="192.31" r="5.15"/><circle class="cls-5" cx="204.71" cy="84.24" r="5.15"/><path class="cls-9" d="M343.56,89.8l-.05.09-.14.26c-.23,30.15-13.41,54.52-29.77,55.14h0c11.06.32,20.7,12.42,25.9,30.34a108.23,108.23,0,0,1,4,25.66v.28l.09.05V89.71Z"/><path class="cls-9" d="M372.34,145.21c-15.81-1.71-28.36-25.63-28.59-55l-.14-.26-.05-.1-.05-.08V201.55l.09.06v-.32a106.31,106.31,0,0,1,4.58-27.53c5.12-16.26,14-27.33,24.15-28.39Z"/><path class="cls-9" d="M343.51,201.55l.1.06v-.32a106.31,106.31,0,0,1,4.58-27.53c-.54-9.22-2.26-16-4.3-16a.66.66,0,0,0-.28,0h-.1c-2,.83-3.63,8.18-4,17.74a108.23,108.23,0,0,1,4,25.66Z"/><path class="cls-9" d="M84.36,295.26v.09l-.14.25C84,325.75,70.8,350.13,54.45,350.74h0c11.06.31,20.69,12.42,25.9,30.33a108.82,108.82,0,0,1,4,25.67V407l.09.06V295.16Z"/><path class="cls-9" d="M113.14,350.67C97.34,349,84.78,325,84.56,295.61l-.14-.25-.06-.1V407.05l.08.05v-.31A106.8,106.8,0,0,1,89,379.25c5.12-16.26,14-27.32,24.16-28.38Z"/><path class="cls-9" d="M84.32,407.05l.1.06v-.32A106.8,106.8,0,0,1,89,379.25c-.53-9.21-2.25-16-4.29-16a.66.66,0,0,0-.28,0h-.1c-2,.83-3.64,8.18-4,17.74a108.82,108.82,0,0,1,4,25.67Z"/></svg>