<svg id="Layer_1" data-name="Layer 1" xmlns="http://www.w3.org/2000/svg" viewBox="0 0 713.57 471.56"><defs><style>.cls-1{fill:#ffafcc;}.cls-2{fill:#fff;}.cls-3{fill:#ffc8dd;}.cls-4{fill:#cbbfd3;}.cls-5{fill:none;stroke:#fff;stroke-miterlimit:10;stroke-width:4px;}.cls-6{fill:#ffdeeb;}.cls-7{fill:#e6deed;}.cls-8{fill:#ffc5dd;}.cls-9{fill:#ff69a6;}.cls-10{fill:#ff78b5;}.cls-11{fill:#e3fcff;}.cls-12{fill:#fff18a;}.cls-13{fill:#f6caff;}.cls-14{fill:#ffed85;}.cls-15{fill:#ffdc31;}</style></defs><circle class="cls-1" cx="182.31" cy="182.31" r="182.31"/><circle class="cls-2" cx="72.1" cy="219.82" r="12.5"/><circle class="cls-3" cx="525.95" cy="283.94" r="187.62"/><path class="cls-4" d="M110.48,94.76" transform="translate(-43.43 -23.88)"/><circle class="cls-5" cx="84.53" cy="213.48" r="22.4"/><path class="cls-2" d="M467,246.31c-2.58.92-3,7.94-1.69,12.68a21.82,21.82,0,0,0,3.07,6.28,50.71,50.71,0,0,0,5.39,6.4h0s5.29-2,6.76-4.23C484.06,262,471.55,244.66,467,246.31Z" transform="translate(-43.43 -23.88)"/><circle class="cls-5" cx="437.69" cy="230.25" r="25.78"/><path class="cls-6" d="M579,161.41c1.17,0,7-.1,9.4-3.91,2.31-3.64.19-8.65-.13-9.45-6.74-16-61.26-18.18-74.46-.51-1.28,1.69-5.67,7.58-3.6,11.41,1.4,2.66,5.42,3.18,6.47,3.31,5.45.68,9.83-2.17,12.44-3.6,9.12-5,23.6-8.06,34-4.24C570,157,571.84,161.51,579,161.41Z" transform="translate(-43.43 -23.88)"/><path class="cls-7" d="M537.38,339.06" transform="translate(-43.43 -23.88)"/><path class="cls-6" d="M692.44,392.32c-.63,1-3.8,5.85-2,10,1.75,3.94,7.1,5,7.93,5.13,17,3.26,49.11-40.91,41.67-61.71-.71-2-3.18-8.9-7.47-9.33-3-.29-5.65,2.74-6.35,3.55-3.59,4.17-3.65,9.39-3.91,12.33-.86,10.39-6.38,24.1-15.3,30.61C701.06,387.3,696.28,386.33,692.44,392.32Z" transform="translate(-43.43 -23.88)"/><circle class="cls-5" cx="269.85" cy="164.26" r="25.78"/><path class="cls-8" d="M218,53.53c1.09-.39,6.57-2.35,7.61-6.77,1-4.22-2.62-8.26-3.18-8.9-11.51-12.95-63.85,2.54-70.66,23.58-.66,2-2.92,9,.24,11.94,2.22,2.08,6.15,1.27,7.2,1.05,5.39-1.11,8.6-5.18,10.61-7.39,7-7.71,19.73-15.21,30.78-15C208.09,52.27,211.26,55.93,218,53.53Z" transform="translate(-43.43 -23.88)"/><path class="cls-2" d="M625.38,346.64c-2.58.92-3,7.94-1.7,12.68a22.08,22.08,0,0,0,3.07,6.28,50.71,50.71,0,0,0,5.39,6.4h0s5.29-2,6.76-4.23C642.48,362.31,630,345,625.38,346.64Z" transform="translate(-43.43 -23.88)"/><circle class="cls-5" cx="596.11" cy="330.58" r="25.78"/><path class="cls-9" d="M212.05,262.94l49.91-21c9.23,21.91,5.53,44.37-8.25,50.18S221.28,284.85,212.05,262.94Z" transform="translate(-43.43 -23.88)"/><path class="cls-10" d="M511,328.8,561.27,349c-8.88,22-27.33,35.39-41.2,29.81S502.16,350.85,511,328.8Z" transform="translate(-43.43 -23.88)"/><circle class="cls-11" cx="83.67" cy="206.61" r="9.73"/><circle class="cls-12" cx="91.95" cy="197.09" r="7.88"/><circle class="cls-13" cx="99.43" cy="207.25" r="6.25"/><circle class="cls-2" cx="253.98" cy="166.12" r="12.15"/><circle class="cls-11" cx="263.71" cy="166.12" r="9.73"/><circle class="cls-12" cx="271.59" cy="156.28" r="7.88"/><circle class="cls-13" cx="279.47" cy="166.12" r="6.25"/><ellipse class="cls-11" cx="588.79" cy="333.94" rx="13.51" ry="13.3"/><ellipse class="cls-12" cx="599.74" cy="320.48" rx="10.95" ry="10.78"/><ellipse class="cls-13" cx="610.68" cy="333.94" rx="8.68" ry="8.54"/><ellipse class="cls-11" cx="429.02" cy="227.96" rx="13.14" ry="13.72"/><ellipse class="cls-12" cx="439.67" cy="214.07" rx="10.65" ry="11.12"/><ellipse class="cls-13" cx="450.32" cy="227.96" rx="8.44" ry="8.82"/><circle class="cls-2" cx="596.11" cy="338.09" r="11.22"/><ellipse class="cls-2" cx="437.06" cy="243.56" rx="10.76" ry="9.05"/><path class="cls-14" d="M687.5,115.55l-.09.17-.28.49C686.67,173,660.63,218.86,628.32,220v.06c21.85.59,40.88,23.39,51.16,57.12a194.7,194.7,0,0,1,7.93,48.32c0,.18,0,.35,0,.52l.18.1V115.37Z" transform="translate(-43.43 -23.88)"/><path class="cls-14" d="M744.35,219.89c-31.22-3.23-56-48.28-56.47-103.67l-.28-.48-.1-.19-.09-.16V326l.17.1c0-.2,0-.4,0-.59a192.22,192.22,0,0,1,9-51.84c10.11-30.61,27.6-51.45,47.71-53.45C744.36,220.13,744.36,220,744.35,219.89Z" transform="translate(-43.43 -23.88)"/><path class="cls-14" d="M687.41,326l.19.11v-.6a192.22,192.22,0,0,1,9-51.84c-1.06-17.36-4.46-30.06-8.49-30.06a1.82,1.82,0,0,0-.56.09.7.7,0,0,0-.19.06c-4,1.57-7.18,15.41-7.93,33.41a194.7,194.7,0,0,1,7.93,48.32Z" transform="translate(-43.43 -23.88)"/><path class="cls-15" d="M392.79,288.49l-.05.09-.14.26c-.23,30.14-13.41,54.52-29.77,55.14v0c11.05.31,20.69,12.42,25.89,30.34a107.68,107.68,0,0,1,4,25.66,2.62,2.62,0,0,1,0,.28l.09,0V288.4Z" transform="translate(-43.43 -23.88)"/><path class="cls-15" d="M421.57,343.9c-15.81-1.71-28.36-25.64-28.59-55l-.14-.26,0-.1-.05-.08V400.28l.09.05c0-.1,0-.21,0-.31a106.84,106.84,0,0,1,4.58-27.53c5.12-16.26,14-27.33,24.15-28.39Z" transform="translate(-43.43 -23.88)"/><path class="cls-15" d="M392.74,400.28l.1.06V400a106.84,106.84,0,0,1,4.58-27.53c-.53-9.22-2.25-16-4.3-16a.92.92,0,0,0-.28.05l-.1,0c-2,.83-3.63,8.19-4,17.75a107.68,107.68,0,0,1,4,25.66Z" transform="translate(-43.43 -23.88)"/><path class="cls-14" d="M260.75,33.28l-.08.14-.22.42c-.38,48.66-21.81,88-48.4,89v.06c18,.5,33.64,20.05,42.1,49a173.42,173.42,0,0,1,6.51,41.42c0,.15,0,.3,0,.45l.15.09V33.12Z" transform="translate(-43.43 -23.88)"/><path class="cls-14" d="M307.54,122.73c-25.7-2.77-46.11-41.39-46.47-88.88l-.23-.41-.09-.16-.08-.14v180.6l.15.09c0-.17,0-.34,0-.51a170.61,170.61,0,0,1,7.44-44.45c8.32-26.24,22.72-44.11,39.26-45.82Z" transform="translate(-43.43 -23.88)"/><path class="cls-14" d="M260.67,213.74l.17.1v-.52a170.61,170.61,0,0,1,7.44-44.45c-.87-14.88-3.67-25.77-7-25.77a1.76,1.76,0,0,0-.45.07l-.17.06c-3.26,1.34-5.9,13.21-6.51,28.65a173.42,173.42,0,0,1,6.51,41.42Z" transform="translate(-43.43 -23.88)"/><path class="cls-15" d="M278.8,75.57l0,.08-.12.22c-.19,25.85-11,46.75-24.49,47.27v0c9.1.27,17,10.65,21.31,26a96.51,96.51,0,0,1,3.3,22v.23l.08.05v-96Z" transform="translate(-43.43 -23.88)"/><path class="cls-15" d="M302.48,123.08c-13-1.47-23.33-22-23.52-47.2l-.11-.22-.05-.09,0-.07v95.92l.07,0a2.44,2.44,0,0,1,0-.27,95.11,95.11,0,0,1,3.76-23.6c4.22-13.94,11.5-23.43,19.88-24.34A1,1,0,0,0,302.48,123.08Z" transform="translate(-43.43 -23.88)"/><path class="cls-15" d="M278.77,171.42l.08.05v-.28a95.11,95.11,0,0,1,3.76-23.6c-.43-7.9-1.85-13.69-3.53-13.69a.59.59,0,0,0-.23,0l-.08,0c-1.66.71-3,7-3.3,15.21a96.51,96.51,0,0,1,3.3,22Z" transform="translate(-43.43 -23.88)"/><path class="cls-14" d="M163.28,228.38l-.1.17-.27.48c-.46,56.77-26.5,102.66-58.82,103.82v.07C126,333.51,145,356.31,155.26,390a194.71,194.71,0,0,1,7.92,48.32c0,.17,0,.35,0,.52l.18.1V228.2Z" transform="translate(-43.43 -23.88)"/><path class="cls-14" d="M220.13,332.72c-31.22-3.24-56-48.28-56.47-103.67l-.28-.48-.1-.19-.1-.16V438.87l.18.1c0-.2,0-.4,0-.59a191.83,191.83,0,0,1,9.05-51.84c10.11-30.62,27.6-51.45,47.71-53.46C220.14,333,220.13,332.84,220.13,332.72Z" transform="translate(-43.43 -23.88)"/><path class="cls-14" d="M163.18,438.87l.2.11v-.6a191.83,191.83,0,0,1,9.05-51.84c-1.06-17.36-4.46-30.06-8.5-30.06a2.09,2.09,0,0,0-.55.08l-.2.07c-4,1.56-7.18,15.41-7.92,33.41a194.71,194.71,0,0,1,7.92,48.32Z" transform="translate(-43.43 -23.88)"/><path class="cls-15" d="M240.13,106.49l0,.09-.14.25c-.24,30.15-13.42,54.53-29.77,55.14v0c11.06.31,20.69,12.42,25.9,30.33a108.28,108.28,0,0,1,4,25.67,2.44,2.44,0,0,0,0,.27l.09.06V106.39Z" transform="translate(-43.43 -23.88)"/><path class="cls-15" d="M268.91,161.9c-15.8-1.72-28.36-25.64-28.58-55.06l-.14-.25-.06-.1,0-.09V218.28l.08.05c0-.1,0-.21,0-.31a106.07,106.07,0,0,1,4.58-27.54c5.12-16.26,14-27.32,24.15-28.38C268.92,162,268.91,162,268.91,161.9Z" transform="translate(-43.43 -23.88)"/><path class="cls-15" d="M240.09,218.28l.1.06V218a106.07,106.07,0,0,1,4.58-27.54c-.54-9.21-2.26-16-4.3-16a.86.86,0,0,0-.28,0l-.1,0c-2,.83-3.64,8.19-4,17.74a108.28,108.28,0,0,1,4,25.67Z" transform="translate(-43.43 -23.88)"/></svg>