<svg id="Layer_1" data-name="Layer 1" xmlns="http://www.w3.org/2000/svg" viewBox="0 0 378.48 407.11"><defs><style>.cls-1{fill:#e1f7ff;}.cls-2{fill:#fabbff;}.cls-3{fill:#cbbfd3;}.cls-4{fill:none;stroke:#fff;stroke-miterlimit:10;stroke-width:4px;}.cls-5{fill:#eef1fc;}.cls-6{fill:#fff;}.cls-7{fill:#fee9ff;}.cls-8{fill:#ffed85;}.cls-9{fill:#71bed3;}.cls-10{fill:#ffdc31;}</style></defs><circle class="cls-1" cx="185.3" cy="185.3" r="185.3"/><path class="cls-2" d="M229.77,273.19c14.37,12.88,18.9,31.25,10.14,41s-27.53,7.26-41.9-5.62l-.8-.73L229,272.47Z" transform="translate(-22.58 -102.45)"/><path class="cls-3" d="M242.46,265.83" transform="translate(-22.58 -102.45)"/><circle class="cls-4" cx="189.98" cy="93.51" r="24.99"/><circle class="cls-4" cx="89.85" cy="201.65" r="24.99"/><path class="cls-5" d="M151.31,160.74c1.08-.57,6.49-3.45,7.31-8.1.77-4.46-3.1-8-3.71-8.61-12.29-11.41-64.22,12.81-69.89,35.4-.55,2.17-2.46,9.67.92,12.19,2.36,1.77,6.27.31,7.31-.07,5.38-2,8.39-6.68,10.28-9.26,6.63-9,19-18.75,30.18-20.25C141.26,161,144.66,164.27,151.31,160.74Z" transform="translate(-22.58 -102.45)"/><path class="cls-6" d="M202.18,192.26c-2.5.91-2.91,7.7-1.63,12.3a20.9,20.9,0,0,0,3,6.09,48.87,48.87,0,0,0,5.21,6.2h0s5.14-1.94,6.56-4.1C218.77,207.46,206.64,190.67,202.18,192.26Z" transform="translate(-22.58 -102.45)"/><path class="cls-7" d="M141,148.27c1-.74,5.85-4.46,5.9-9.19,0-4.52-4.37-7.43-5.06-7.89-14-9.26-61.28,23.09-63.2,46.31-.18,2.23-.85,9.95,2.9,11.88,2.61,1.36,6.24-.71,7.2-1.26,5-2.85,7.19-8,8.63-10.81,5.08-10,15.73-21.6,26.49-24.89C131.13,150.19,135,152.84,141,148.27Z" transform="translate(-22.58 -102.45)"/><path class="cls-6" d="M100.66,296.43c-2.46.91-2.92,7.7-1.64,12.3a21.15,21.15,0,0,0,3,6.09,49.72,49.72,0,0,0,5.21,6.2h0s5.14-1.94,6.56-4.1C117.24,311.63,105.12,294.84,100.66,296.43Z" transform="translate(-22.58 -102.45)"/><path class="cls-7" d="M151.23,430c-1.17-.21-7-1.28-9.52,2.66-2.4,3.76-.39,10-.08,11,6.38,19.87,61.1,33.37,74.78,15.49,1.32-1.71,5.86-7.63,3.9-12.48-1.39-3.39-5.37-4.78-6.43-5.14-5.46-1.86-9.9.51-12.56,1.66-9.27,4-23.88,4.61-34.2-1.89C160.17,436.83,158.4,431.27,151.23,430Z" transform="translate(-22.58 -102.45)"/><circle class="cls-6" cx="197.04" cy="185.3" r="2.5"/><circle class="cls-6" cx="220.72" cy="178.9" r="3.8"/><circle class="cls-6" cx="185.3" cy="16.31" r="8.34"/><circle class="cls-6" cx="114.61" cy="398.41" r="8.7"/><circle class="cls-6" cx="185.3" cy="284.25" r="5.99"/><circle class="cls-6" cx="251.18" cy="396.1" r="2.3"/><path class="cls-8" d="M344.2,111l-.1.17-.27.48c-.46,56.77-26.5,102.66-58.81,103.83v.06c21.85.59,40.88,23.39,51.16,57.12A194.25,194.25,0,0,1,344.1,321c0,.18,0,.35,0,.52l.18.1V110.86Z" transform="translate(-22.58 -102.45)"/><path class="cls-8" d="M401.05,215.38c-31.22-3.23-56-48.28-56.47-103.67l-.28-.48-.1-.19-.1-.16V321.53l.18.1c0-.2,0-.4,0-.59a192.22,192.22,0,0,1,9.05-51.84c10.11-30.62,27.6-51.45,47.71-53.45C401.06,215.62,401.06,215.5,401.05,215.38Z" transform="translate(-22.58 -102.45)"/><path class="cls-8" d="M344.1,321.53l.2.11V321a192.22,192.22,0,0,1,9.05-51.84c-1.06-17.36-4.46-30.06-8.49-30.06a2.16,2.16,0,0,0-.56.08l-.2.07c-4,1.57-7.17,15.41-7.92,33.41A194.25,194.25,0,0,1,344.1,321Z" transform="translate(-22.58 -102.45)"/><path class="cls-8" d="M87.32,347.76l-.06.12-.19.34c-.31,40.27-17.77,72.83-39.44,73.66v0c14.65.42,27.42,16.6,34.31,40.53a145.64,145.64,0,0,1,5.32,34.28c0,.12,0,.25,0,.37l.12.07V347.63Z" transform="translate(-22.58 -102.45)"/><path class="cls-8" d="M125.45,421.78c-20.94-2.29-37.57-34.25-37.87-73.55l-.19-.34-.07-.13-.06-.12V497.09l.11.07c0-.14,0-.28,0-.42A142.87,142.87,0,0,1,93.46,460c6.78-21.72,18.51-36.5,32-37.92C125.46,422,125.45,421.87,125.45,421.78Z" transform="translate(-22.58 -102.45)"/><path class="cls-8" d="M87.26,497.09l.13.08v-.43A142.87,142.87,0,0,1,93.46,460c-.71-12.31-3-21.32-5.7-21.32a1.15,1.15,0,0,0-.37.06l-.13,0c-2.66,1.12-4.82,10.94-5.32,23.71a145.64,145.64,0,0,1,5.32,34.28Z" transform="translate(-22.58 -102.45)"/><circle class="cls-9" cx="193.39" cy="84.57" r="11.08"/><circle class="cls-10" cx="201.73" cy="92.38" r="10.03"/><circle class="cls-9" cx="94.47" cy="191.34" r="11.08"/><circle class="cls-10" cx="104.49" cy="197.47" r="10.03"/><circle class="cls-6" cx="113.3" cy="192.31" r="5.15"/><circle class="cls-6" cx="204.71" cy="84.24" r="5.15"/><path class="cls-10" d="M366.14,192.25l-.05.09-.14.26c-.23,30.15-13.41,54.52-29.77,55.14v0c11.06.32,20.7,12.42,25.9,30.34a108.19,108.19,0,0,1,4,25.66c0,.1,0,.19,0,.28l.09.05V192.16Z" transform="translate(-22.58 -102.45)"/><path class="cls-10" d="M394.92,247.66c-15.81-1.71-28.36-25.63-28.59-55l-.14-.26-.05-.1-.05-.08V304l.09.06c0-.11,0-.21,0-.32a106.49,106.49,0,0,1,4.58-27.53c5.12-16.26,14-27.33,24.15-28.39Z" transform="translate(-22.58 -102.45)"/><path class="cls-10" d="M366.09,304l.1.06v-.32a106.49,106.49,0,0,1,4.58-27.53c-.54-9.22-2.26-16-4.3-16a.86.86,0,0,0-.28,0l-.1,0c-2,.83-3.63,8.18-4,17.74a108.19,108.19,0,0,1,4,25.66Z" transform="translate(-22.58 -102.45)"/><path class="cls-10" d="M106.94,397.71l0,.09-.14.25c-.24,30.15-13.42,54.53-29.77,55.14v0c11.06.31,20.69,12.42,25.9,30.33a108.79,108.79,0,0,1,4,25.67,2.44,2.44,0,0,0,0,.27l.09.06V397.61Z" transform="translate(-22.58 -102.45)"/><path class="cls-10" d="M135.72,453.12c-15.8-1.72-28.36-25.64-28.58-55.06l-.14-.25-.06-.1,0-.09V509.5l.08.05c0-.11,0-.21,0-.31a106.51,106.51,0,0,1,4.57-27.54c5.12-16.26,14-27.32,24.16-28.38A1.41,1.41,0,0,1,135.72,453.12Z" transform="translate(-22.58 -102.45)"/><path class="cls-10" d="M106.9,509.5l.1.06v-.32a106.51,106.51,0,0,1,4.57-27.54c-.53-9.21-2.25-16-4.29-16a.86.86,0,0,0-.28,0l-.1,0c-2,.83-3.64,8.18-4,17.74a108.79,108.79,0,0,1,4,25.67Z" transform="translate(-22.58 -102.45)"/></svg>