<svg id="Layer_1" data-name="Layer 1" xmlns="http://www.w3.org/2000/svg" viewBox="0 0 370.6 399.5"><defs><style>.cls-1{fill:#fff;}.cls-2{fill:#71bed3;}.cls-3{fill:#ffdc31;}.cls-4{fill:#ffed85;}.cls-5{fill:#fabbff;}.cls-6{fill:#dee2ff;}.cls-7{fill:#cbbfd3;}.cls-8{fill:none;stroke:#fff;stroke-miterlimit:10;stroke-width:4px;}.cls-9{fill:#edf0fc;}</style></defs><circle class="cls-1" cx="191.29" cy="276.64" r="5.99"/><circle class="cls-1" cx="191.29" cy="8.7" r="8.34"/><circle class="cls-1" cx="203.03" cy="177.69" r="2.5"/><circle class="cls-1" cx="226.72" cy="171.3" r="3.8"/><circle class="cls-2" cx="247.22" cy="167.92" r="11.08"/><circle class="cls-3" cx="255.57" cy="175.73" r="10.03"/><path class="cls-4" d="M246.53,271.84l-.06.12-.19.34c-.31,40.27-17.77,72.83-39.44,73.66v0c14.65.42,27.42,16.59,34.31,40.52a145.81,145.81,0,0,1,5.32,34.29c0,.12,0,.24,0,.37l.12.07V271.71Z" transform="translate(-14.69 -105.98)"/><path class="cls-4" d="M284.66,345.86c-20.94-2.3-37.57-34.25-37.88-73.55l-.18-.34-.07-.13-.06-.12V421.17l.11.07c0-.14,0-.28,0-.42A142.8,142.8,0,0,1,252.67,384c6.78-21.72,18.51-36.5,32-37.92A2.35,2.35,0,0,1,284.66,345.86Z" transform="translate(-14.69 -105.98)"/><path class="cls-4" d="M246.47,421.17l.13.08v-.43A142.8,142.8,0,0,1,252.67,384c-.71-12.31-3-21.32-5.7-21.32a1.15,1.15,0,0,0-.37.06l-.13,0c-2.66,1.11-4.82,10.94-5.32,23.7a145.81,145.81,0,0,1,5.32,34.29Z" transform="translate(-14.69 -105.98)"/><path class="cls-3" d="M245.8,297.46l-.05.09-.14.26C245.38,328,232.2,352.33,215.84,353v0c11.05.31,20.69,12.42,25.89,30.34a107.68,107.68,0,0,1,4,25.66,2.62,2.62,0,0,1,0,.28l.09.05V297.37Z" transform="translate(-14.69 -105.98)"/><path class="cls-3" d="M274.58,352.87c-15.81-1.71-28.36-25.64-28.59-55.05l-.14-.26,0-.1-.05-.08V409.25l.09.05c0-.1,0-.21,0-.31a106.49,106.49,0,0,1,4.58-27.53c5.12-16.26,14-27.33,24.15-28.39Z" transform="translate(-14.69 -105.98)"/><path class="cls-3" d="M245.75,409.25l.1.06V409a106.49,106.49,0,0,1,4.58-27.53c-.53-9.22-2.26-16-4.3-16a.92.92,0,0,0-.28.05l-.1,0c-2,.84-3.63,8.19-4,17.75a107.68,107.68,0,0,1,4,25.66Z" transform="translate(-14.69 -105.98)"/><path class="cls-4" d="M304.39,163.19l-.09.17-.28.48c-.46,56.76-26.49,102.66-58.81,103.82v.07c21.85.58,40.88,23.38,51.16,57.11a194.79,194.79,0,0,1,7.92,48.32c0,.18,0,.35,0,.53l.18.1V163Z" transform="translate(-14.69 -105.98)"/><path class="cls-4" d="M361.25,267.52c-31.22-3.23-56-48.28-56.47-103.66l-.28-.49-.11-.18-.09-.16V373.67l.17.1,0-.59a191.84,191.84,0,0,1,9-51.84c10.12-30.61,27.61-51.45,47.72-53.45C361.25,267.77,361.25,267.64,361.25,267.52Z" transform="translate(-14.69 -105.98)"/><path class="cls-4" d="M304.3,373.67l.2.12v-.61a191.84,191.84,0,0,1,9-51.84c-1.05-17.35-4.45-30.06-8.49-30.06a1.71,1.71,0,0,0-.55.09l-.2.06c-4,1.57-7.18,15.41-7.92,33.41a194.79,194.79,0,0,1,7.92,48.32Z" transform="translate(-14.69 -105.98)"/><circle class="cls-2" cx="164.52" cy="257.78" r="11.08"/><circle class="cls-3" cx="174.55" cy="263.91" r="10.03"/><circle class="cls-1" cx="183.36" cy="258.76" r="5.15"/><path class="cls-3" d="M326.33,212.52l0,.09-.14.25c-.24,30.15-13.42,54.53-29.77,55.14v0c11.06.31,20.69,12.42,25.89,30.33a108.35,108.35,0,0,1,4,25.67,2.72,2.72,0,0,0,0,.28l.09.05v-112Z" transform="translate(-14.69 -105.98)"/><path class="cls-3" d="M355.11,267.93c-15.8-1.71-28.36-25.64-28.58-55.06l-.14-.25-.06-.1,0-.09V324.31l.08.05c0-.1,0-.21,0-.31A106.43,106.43,0,0,1,331,296.52c5.12-16.26,14-27.33,24.16-28.39A1.34,1.34,0,0,1,355.11,267.93Z" transform="translate(-14.69 -105.98)"/><path class="cls-3" d="M326.29,324.31l.1.06v-.32A106.43,106.43,0,0,1,331,296.52c-.53-9.22-2.25-16-4.29-16a.87.87,0,0,0-.28.05l-.1,0c-2,.83-3.64,8.19-4,17.74a108.35,108.35,0,0,1,4,25.67Z" transform="translate(-14.69 -105.98)"/><path class="cls-5" d="M227.88,269.11c14.36,12.89,18.9,31.26,10.13,41s-27.52,7.26-41.89-5.63c-.27-.24-.54-.48-.8-.73l31.74-35.39Z" transform="translate(-14.69 -105.98)"/><circle class="cls-6" cx="185.3" cy="185.3" r="185.3"/><path class="cls-7" d="M240.57,261.76" transform="translate(-14.69 -105.98)"/><circle class="cls-8" cx="195.97" cy="85.9" r="24.99"/><circle class="cls-8" cx="95.84" cy="194.04" r="24.99"/><path class="cls-1" d="M200.29,188.19c-2.5.9-2.91,7.69-1.64,12.29a20.93,20.93,0,0,0,3,6.09,48.18,48.18,0,0,0,5.21,6.2h0s5.14-1.93,6.55-4.09C216.88,203.38,204.75,186.59,200.29,188.19Z" transform="translate(-14.69 -105.98)"/><path class="cls-9" d="M139.1,144.19c1-.74,5.85-4.46,5.89-9.18,0-4.53-4.36-7.44-5.05-7.89-14-9.26-61.28,23.09-63.2,46.3-.18,2.23-.85,10,2.9,11.88,2.61,1.37,6.24-.71,7.2-1.26,5-2.85,7.18-7.95,8.63-10.81,5.08-10,15.73-21.6,26.48-24.89C129.24,146.11,133.12,148.76,139.1,144.19Z" transform="translate(-14.69 -105.98)"/><path class="cls-1" d="M98.77,292.36c-2.46.9-2.92,7.69-1.64,12.29a20.66,20.66,0,0,0,3,6.09,49,49,0,0,0,5.21,6.2h0s5.14-1.93,6.56-4.09C115.35,307.55,103.22,290.76,98.77,292.36Z" transform="translate(-14.69 -105.98)"/><path class="cls-9" d="M149.34,425.89c-1.17-.22-7-1.28-9.52,2.65-2.4,3.77-.39,10-.08,11,6.38,19.87,61.1,33.36,74.77,15.49,1.32-1.71,5.87-7.63,3.9-12.48-1.38-3.4-5.37-4.78-6.42-5.14-5.46-1.86-9.9.5-12.56,1.65-9.28,4-23.88,4.62-34.2-1.88C158.28,432.75,156.51,427.2,149.34,425.89Z" transform="translate(-14.69 -105.98)"/><circle class="cls-1" cx="120.6" cy="390.8" r="8.7"/><circle class="cls-1" cx="257.18" cy="388.5" r="2.3"/><circle class="cls-1" cx="210.7" cy="76.63" r="5.15"/><path class="cls-9" d="M238.64,268.77c.89-1.11,5.34-6.64,2.41-11.44-2.81-4.61-10.82-6-12.06-6.19-25.49-4.36-71,45.4-59,69.64,1.14,2.33,5.12,10.38,11.57,11,4.53.44,8.28-3,9.27-3.87,5.11-4.68,5-10.64,5.21-14.06.76-11.94,8.29-27.55,21.23-34.74C226.06,274.3,233.18,275.54,238.64,268.77Z" transform="translate(-14.69 -105.98)"/></svg>