<svg id="Layer_1" data-name="Layer 1" xmlns="http://www.w3.org/2000/svg" viewBox="0 0 811.17 547.47"><defs><style>.cls-1{fill:#ffc8dd;}.cls-2{fill:#aedaff;}.cls-3{fill:#cbbfd3;}.cls-4{fill:none;stroke:#fff;stroke-miterlimit:10;stroke-width:4px;}.cls-5{fill:#c5e8ff;}.cls-6{fill:#e6deed;}.cls-7{fill:#ffdeeb;}.cls-8{fill:#ff78b5;}.cls-9{fill:#ffed85;}.cls-10{fill:#ffdc31;}.cls-11{fill:#e3fcff;}.cls-12{fill:#fff18a;}.cls-13{fill:#f6caff;}.cls-14{fill:#fff;}</style></defs><circle class="cls-1" cx="207.25" cy="213.49" r="207.25"/><circle class="cls-2" cx="597.89" cy="334.19" r="213.28"/><path class="cls-3" d="M76.22,80.57" transform="translate(0 11.41)"/><circle class="cls-4" cx="96.09" cy="254.09" r="25.47"/><circle class="cls-4" cx="497.56" cy="273.16" r="29.31"/><path class="cls-5" d="M608.8,156.34c1.32,0,7.94-.11,10.68-4.45,2.62-4.14.22-9.83-.15-10.74-7.66-18.17-69.64-20.66-84.65-.59-1.44,1.93-6.44,8.62-4.09,13,1.6,3,6.16,3.62,7.36,3.77,6.2.78,11.18-2.46,14.14-4.09,10.37-5.73,26.83-9.17,38.62-4.83C598.62,151.35,600.69,156.5,608.8,156.34Z" transform="translate(0 11.41)"/><path class="cls-6" d="M561.54,358.29" transform="translate(0 11.41)"/><path class="cls-5" d="M737.78,418.83c-.71,1.11-4.31,6.65-2.22,11.36,2,4.48,8.07,5.65,9,5.83,19.34,3.71,55.82-46.5,47.36-70.15-.81-2.27-3.62-10.12-8.49-10.61-3.43-.33-6.42,3.12-7.22,4-4.08,4.73-4.15,10.67-4.45,14-1,11.81-7.25,27.41-17.39,34.8C747.54,413.12,742.15,412,737.78,418.83Z" transform="translate(0 11.41)"/><circle class="cls-4" cx="306.76" cy="198.14" r="29.31"/><path class="cls-7" d="M206.72,33.69C208,33.25,214.2,31,215.37,26c1.14-4.81-3-9.4-3.61-10.12-13.08-14.72-72.58,2.88-80.33,26.8-.74,2.29-3.32,10.22.28,13.58,2.53,2.36,7,1.44,8.19,1.19,6.12-1.26,9.77-5.89,12.06-8.4,8-8.77,22.43-17.3,35-17C195.47,32.26,199.07,36.42,206.72,33.69Z" transform="translate(0 11.41)"/><circle class="cls-4" cx="677.65" cy="387.21" r="29.31"/><path class="cls-8" d="M234.65,240.63c10.42,20.95,9.33,42.67-2.43,48.51s-29.73-6.39-40.15-27.34c-.19-.39-.39-.79-.57-1.18l42.55-21.16Z" transform="translate(0 11.41)"/><path class="cls-8" d="M574.15,374.84c-13.75,19.68-33.63,29.53-44.39,22s-8.35-29.58,5.41-49.25l.78-1.1,39,27.24Z" transform="translate(0 11.41)"/><path class="cls-9" d="M376.69,36.29l-.08.14-.23.42c-.38,48.66-21.8,88-48.39,89v.06c18,.5,33.64,20,42.1,49a172.91,172.91,0,0,1,6.52,41.42c0,.16,0,.3,0,.45l.14.09V36.13Z" transform="translate(0 11.41)"/><path class="cls-9" d="M423.47,125.74C397.78,123,377.37,84.35,377,36.86l-.23-.41-.08-.16-.08-.14v180.6l.14.09c0-.17,0-.34,0-.51a171,171,0,0,1,7.45-44.45c8.32-26.24,22.71-44.11,39.26-45.82C423.47,126,423.47,125.85,423.47,125.74Z" transform="translate(0 11.41)"/><path class="cls-9" d="M376.61,216.75l.16.1v-.52a171,171,0,0,1,7.45-44.45c-.87-14.88-3.67-25.77-7-25.77a1.44,1.44,0,0,0-.46.08l-.16.05c-3.26,1.35-5.91,13.22-6.52,28.65a172.91,172.91,0,0,1,6.52,41.42Z" transform="translate(0 11.41)"/><path class="cls-9" d="M154.24,285.6l-.07.14-.23.41c-.38,48.67-21.81,88-48.4,89v.05c18,.51,33.64,20.06,42.1,49a174.08,174.08,0,0,1,6.52,41.43c0,.15,0,.3,0,.45l.15.09V285.44Z" transform="translate(0 11.41)"/><path class="cls-9" d="M201,375.05c-25.7-2.77-46.1-41.39-46.47-88.88l-.23-.41-.09-.16-.07-.14v180.6l.14.09c0-.17,0-.34,0-.51a170.61,170.61,0,0,1,7.44-44.45c8.32-26.24,22.72-44.11,39.26-45.82Z" transform="translate(0 11.41)"/><path class="cls-9" d="M154.17,466.06l.16.1v-.52a170.61,170.61,0,0,1,7.44-44.45c-.87-14.88-3.67-25.77-7-25.77a1.76,1.76,0,0,0-.45.07l-.16.06c-3.27,1.34-5.91,13.21-6.52,28.64a174.08,174.08,0,0,1,6.52,41.43Z" transform="translate(0 11.41)"/><path class="cls-9" d="M750.66,152.48l-.08.14-.23.41c-.37,48.67-21.8,88-48.39,89v0c18,.51,33.63,20.06,42.09,49a173.07,173.07,0,0,1,6.52,41.43c0,.15,0,.3,0,.45l.14.09V152.32Z" transform="translate(0 11.41)"/><path class="cls-9" d="M797.44,241.93c-25.69-2.77-46.1-41.39-46.47-88.88l-.23-.41-.08-.16-.08-.14v180.6l.14.09c0-.17,0-.34,0-.51a171,171,0,0,1,7.45-44.45c8.32-26.24,22.71-44.11,39.26-45.82C797.45,242.14,797.44,242,797.44,241.93Z" transform="translate(0 11.41)"/><path class="cls-9" d="M750.58,332.94l.16.1v-.52a171,171,0,0,1,7.45-44.45c-.87-14.88-3.67-25.77-7-25.77a1.77,1.77,0,0,0-.46.07l-.16.06c-3.26,1.34-5.91,13.21-6.52,28.64a173.07,173.07,0,0,1,6.52,41.43Z" transform="translate(0 11.41)"/><path class="cls-10" d="M721.27,418.66l0,.09-.14.25c-.23,30.15-13.41,54.53-29.77,55.14v0c11.06.31,20.69,12.42,25.89,30.33a107.77,107.77,0,0,1,4,25.67,2.44,2.44,0,0,1,0,.27l.09.06V418.56Z" transform="translate(0 11.41)"/><path class="cls-10" d="M750.05,474.07c-15.81-1.72-28.36-25.64-28.59-55.06l-.14-.25-.05-.1,0-.09V530.45l.09,0c0-.1,0-.21,0-.31a106.92,106.92,0,0,1,4.58-27.54c5.12-16.25,14-27.32,24.15-28.38Z" transform="translate(0 11.41)"/><path class="cls-10" d="M721.22,530.45l.1.06v-.32a106.92,106.92,0,0,1,4.58-27.54c-.53-9.21-2.25-16-4.3-16a1,1,0,0,0-.28.05l-.1,0c-2,.83-3.63,8.19-4,17.74a107.77,107.77,0,0,1,4,25.67Z" transform="translate(0 11.41)"/><path class="cls-10" d="M353,90.24l-.05.09-.14.25c-.23,30.15-13.41,54.52-29.77,55.14v0c11.06.31,20.7,12.42,25.9,30.33a108.28,108.28,0,0,1,4,25.67c0,.09,0,.18,0,.27l.09.06V90.14Z" transform="translate(0 11.41)"/><path class="cls-10" d="M381.75,145.65c-15.81-1.72-28.36-25.64-28.59-55.06l-.14-.25,0-.1-.05-.09V202l.09.05c0-.11,0-.21,0-.31a106.5,106.5,0,0,1,4.58-27.54c5.12-16.26,14-27.32,24.15-28.39Z" transform="translate(0 11.41)"/><path class="cls-10" d="M352.92,202l.1.06v-.32a106.5,106.5,0,0,1,4.58-27.54c-.54-9.22-2.26-16-4.3-16a.9.9,0,0,0-.28,0l-.1,0c-2,.83-3.63,8.18-4,17.74a108.28,108.28,0,0,1,4,25.67Z" transform="translate(0 11.41)"/><path class="cls-10" d="M77.24-11.31l0,.09-.14.25c-.23,30.15-13.41,54.53-29.77,55.15v0C58.34,44.52,68,56.63,73.18,74.55a107.68,107.68,0,0,1,4,25.66,2.53,2.53,0,0,1,0,.28l.09.05V-11.41Z" transform="translate(0 11.41)"/><path class="cls-10" d="M106,44.1C90.21,42.39,77.66,18.46,77.43-11l-.14-.25-.05-.1,0-.09V100.48l.09,0c0-.1,0-.21,0-.31a106.42,106.42,0,0,1,4.58-27.53C87,56.43,95.84,45.36,106,44.3Z" transform="translate(0 11.41)"/><path class="cls-10" d="M77.19,100.48l.1.06v-.32a106.42,106.42,0,0,1,4.58-27.53c-.53-9.22-2.26-16-4.3-16a.92.92,0,0,0-.28.05l-.1,0c-2,.83-3.63,8.19-4,17.75a107.68,107.68,0,0,1,4,25.66Z" transform="translate(0 11.41)"/><circle class="cls-11" cx="666.39" cy="388.34" r="17.82"/><circle class="cls-12" cx="680.84" cy="370.31" r="14.44"/><circle class="cls-13" cx="695.28" cy="388.34" r="11.45"/><circle class="cls-11" cx="487.38" cy="274.45" r="16.12"/><circle class="cls-12" cx="500.44" cy="258.13" r="13.06"/><circle class="cls-13" cx="513.51" cy="274.45" r="10.36"/><circle class="cls-11" cx="90.46" cy="255.65" r="12.17"/><circle class="cls-12" cx="100.32" cy="243.34" r="9.86"/><circle class="cls-13" cx="110.18" cy="255.65" r="7.82"/><circle class="cls-11" cx="304.28" cy="193.23" r="13.39"/><circle class="cls-12" cx="315.13" cy="179.68" r="10.85"/><circle class="cls-13" cx="325.98" cy="193.23" r="8.6"/><circle class="cls-14" cx="100.32" cy="263.47" r="11.36"/><circle class="cls-14" cx="680.84" cy="399.79" r="11.36"/><circle class="cls-14" cx="497.56" cy="284.8" r="11.36"/><circle class="cls-14" cx="315.13" cy="206.61" r="11.36"/></svg>